<svg xmlns="http://www.w3.org/2000/svg" width="150" height="31.097" viewBox="0 0 150 31.097">
  <g id="Grupo_2958" data-name="Grupo 2958" transform="translate(-19.366 -1682.165)">
    <path id="Trazado_3505" data-name="Trazado 3505" d="M61.453,1683.068h.03l.149-.031Z" transform="translate(-1.487)" fill="#99f"/>
    <path id="Trazado_3506" data-name="Trazado 3506" d="M107.043,1682.321c-7.039-.5-10.661.325-19.029.641-7.361-.038-9.318-.529-16.942-.22-3.639,0-7.519.174-11.075.283-1.685.425-4.669.067-6.664.429l-.776-.218a6.725,6.725,0,0,1-2.186.1l.043-.067c-1.027.186-2.187.1-2.7.191l.043-.068-1.249.046.214-.1a35.129,35.129,0,0,1-5.268.18l.137.275c-.87-.066-1.6-.079-2.261-.066-.351.01-.59.012-.988.043a6.745,6.745,0,0,0-1.14.16,9.357,9.357,0,0,0-4.37,2.4l-.011-.088a10.41,10.41,0,0,0-1.474,3.265,8.851,8.851,0,0,0-.267,1.542c-.048.486-.109.816-.166,1.23a19.522,19.522,0,0,0-.265,5.224c-.052-.512-.157.213-.221.17-.047,1.884-.139,3.895.4,3.942-.1,1.371-.244,1.111-.466,1.283.239,0,.258,1.2.2,2.265l-.059-.5-.031.768a7.79,7.79,0,0,0,.05.965,7.3,7.3,0,0,0,.5,1.844,5.663,5.663,0,0,1,.2-.831c.212.925.192,1.083.136,1.235-.039.144-.1.308.486,1.083l.289-.234a9.488,9.488,0,0,0,2.407,2.524,6.869,6.869,0,0,0,1.52.824,7.324,7.324,0,0,0,.91.27c.322.061.709.118.945.142,9.073.046,18.814-1.025,27.259-.475l.374.275c.165.406,2.324-.634,2.649-.26l.98-.2c.276.07.859.141.37.238a5.043,5.043,0,0,0,1.583-.194l.976.242c3.583.152,6.626-.375,10.4-.324,4.531.462,13.051-.121,17.96-.459a73.507,73.507,0,0,1,10.939.055l1.409.071c.5.017.852.06,1.532.044a7.244,7.244,0,0,0,3.562-1.051,7.04,7.04,0,0,0,3.433-6.112,1.828,1.828,0,0,0-.038-.812c-.062-.224-.12-.326-.145-.333l-.8-6.419s-.271-1.941-.627-4.484c-.2-1.31-.422-2.775-.642-4.224a6.936,6.936,0,0,0-2.878-4.122,21.739,21.739,0,0,0-3.347-1.756C111.536,1682.3,107.043,1682.321,107.043,1682.321Z" transform="translate(-11)" fill="#fff"/>
    <path id="Trazado_12090" data-name="Trazado 12090" d="M107.043,1682.321c-7.039-.5-10.661.325-19.029.641-7.361-.038-9.318-.529-16.942-.22-3.639,0-7.519.174-11.075.283-1.685.425-4.669.067-6.664.429l-.776-.218a6.725,6.725,0,0,1-2.186.1l.043-.067c-1.027.186-2.187.1-2.7.191l.043-.068-1.249.046.214-.1a35.129,35.129,0,0,1-5.268.18l.137.275c-.87-.066-1.6-.079-2.261-.066-.351.01-.59.012-.988.043a6.745,6.745,0,0,0-1.14.16,9.357,9.357,0,0,0-4.37,2.4l-.011-.088a10.41,10.41,0,0,0-1.474,3.265,8.851,8.851,0,0,0-.267,1.542c-.048.486-.109.816-.166,1.23a19.522,19.522,0,0,0-.265,5.224c-.052-.512-.157.213-.221.17-.047,1.884-.139,3.895.4,3.942-.1,1.371-.244,1.111-.466,1.283.239,0,.258,1.2.2,2.265l-.059-.5-.031.768a7.79,7.79,0,0,0,.05.965,7.3,7.3,0,0,0,.5,1.844,5.663,5.663,0,0,1,.2-.831c.212.925.192,1.083.136,1.235-.039.144-.1.308.486,1.083l.289-.234a9.488,9.488,0,0,0,2.407,2.524,6.869,6.869,0,0,0,1.52.824,7.324,7.324,0,0,0,.91.27c.322.061.709.118.945.142,9.073.046,18.814-1.025,27.259-.475l.374.275c.165.406,2.324-.634,2.649-.26l.98-.2c.276.07.859.141.37.238a5.043,5.043,0,0,0,1.583-.194l.976.242c3.583.152,6.626-.375,10.4-.324,4.531.462,13.051-.121,17.96-.459a73.507,73.507,0,0,1,10.939.055l1.409.071c.5.017.852.06,1.532.044a7.244,7.244,0,0,0,3.562-1.051,7.04,7.04,0,0,0,3.433-6.112,1.828,1.828,0,0,0-.038-.812c-.062-.224-.12-.326-.145-.333l-.8-6.419s-.271-1.941-.627-4.484c-.2-1.31-.422-2.775-.642-4.224a6.936,6.936,0,0,0-2.878-4.122,21.739,21.739,0,0,0-3.347-1.756C111.536,1682.3,107.043,1682.321,107.043,1682.321Z" transform="translate(48)" fill="#fff"/>
  </g>
</svg>
