<svg xmlns="http://www.w3.org/2000/svg" width="50" height="50.112" viewBox="0 0 50 50.112">
  <g id="Grupo_1963" data-name="Grupo 1963" transform="translate(-1368 -15.544)">
    <g id="Grupo_3070" data-name="Grupo 3070">
      <g id="Grupo_2978" data-name="Grupo 2978" transform="translate(-1152.199 -32.084)">
        <path id="Trazado_3550" data-name="Trazado 3550" d="M2660.175,172.341l-.038.04C2660.151,172.367,2660.165,172.353,2660.175,172.341Z" transform="translate(-96.843 -86.306)" fill="#f1c40f" fill-rule="evenodd"/>
        <path id="Trazado_3551" data-name="Trazado 3551" d="M2568.154,73.175c-.01-.356-.013-.722-.057-1.108,0,.185.006.368,0,.555-.05-.5-.112-1.512-.28-2.757a29.673,29.673,0,0,0-2.293-8.019,13.786,13.786,0,0,0-1.288-2.331c.08.274.155.547.222.819-.266-.439-.552-.871-.858-1.293.083.14.724.337.861.5a18.23,18.23,0,0,0-.951-1.583c-.234-.346-.5-.722-.822-1.114-.154-.2-.333-.388-.51-.591s-.36-.41-.565-.6a20.008,20.008,0,0,0-6.1-4.073,45.871,45.871,0,0,0-6.387-2.213c-1.806-.516-3.335-.891-4.064-1.058-1.173-.315-.166-.313-.144-.337a3.692,3.692,0,0,0-1.048-.061,3.3,3.3,0,0,1-.894-.056c-.355-.067.088-.13.292-.131a4.094,4.094,0,0,0-1.167-.061c.729.112.4.308.688.475a16.879,16.879,0,0,0-1.692-.1l.077-.137a4.3,4.3,0,0,0-.848.2,16.855,16.855,0,0,1-1.837.344,13.172,13.172,0,0,0-4.185,1.512,18.616,18.616,0,0,0-3.467,2.534c-.025-.089.365-.522.793-.931-.3.233-.708.625-1,.819.293-.177.1.04-.116.262s-.435.459-.232.295c-.6.831-1.324,1.681-1.979,2.54-.18.234-.355.468-.521.7a24.281,24.281,0,0,0-7.1,12.956c-.088.147-.047-.04-.03-.245a23.358,23.358,0,0,0-.326,5.966,2.81,2.81,0,0,1-.126.862,35.661,35.661,0,0,0,1.174,5.123c.19.656.469,1.281.7,1.883s.519,1.135.735,1.61c.475.929.839,1.546.848,1.59l.276-.01c.554.866.58,1.029.6,1.175s.018.281.622,1.031a2.413,2.413,0,0,1,.607.572c.227.257.48.56.722.868l.36.455c.12.146.246.276.36.4a3.134,3.134,0,0,0,.581.517,3.545,3.545,0,0,0,.286.35c.154.166.3.334.24.355.348.048.745.625,1.246.957.205.09-.093-.139-.179-.286.368.266.744.521,1.116.779a1.156,1.156,0,0,1,.3.365c0,.047-.112.011-.348-.159a8.078,8.078,0,0,0,.668.484l.917.621a26.677,26.677,0,0,0,2.553,1.391,20.67,20.67,0,0,0,7.33,1.922,17.29,17.29,0,0,0,4.145-.221,18.831,18.831,0,0,0,3.611-1.021,23.631,23.631,0,0,0,4.363-2.27,6.667,6.667,0,0,0-.946.452,2.822,2.822,0,0,1-.972.356,16.672,16.672,0,0,0,1.577-1.018,2.5,2.5,0,0,0,1.191-.525,5.1,5.1,0,0,1,1.378-.708l.107-.311.441-.183c1.561-1.307,1.7-1.482,1.846-1.585a16.752,16.752,0,0,0,1.665-1.319,17.034,17.034,0,0,0,1.77-1.877c.431-.519.78-.963,1.208-1.4-.151.148-.47.354-.152-.071.095.016.323-.3.561-.642a3.057,3.057,0,0,1,.628-.784c.166-.238.52-.754.752-1.165s.344-.716.079-.5a5.676,5.676,0,0,0,.618-.819c.193-.288.3-.432.112.054a9.146,9.146,0,0,0,.669-1.433c-.108.226-.248.44-.371.659.216-.447.379-.852.532-1.22s.287-.7.4-1.019a6.9,6.9,0,0,0,.416-1.842l-.265.672c.067-.281.139-.549.192-.8s.1-.49.153-.7a3.426,3.426,0,0,1,.344-.976l-.047.59-.077.591c.1-.473.154-.9.2-1.3s.081-.768.1-1.128A10.43,10.43,0,0,0,2568.154,73.175Z" fill="#f1c40f" fill-rule="evenodd"/>
        <path id="Trazado_3552" data-name="Trazado 3552" d="M2663.912,86.306l.027.05A.1.1,0,0,0,2663.912,86.306Z" transform="translate(-99.456 -26.766)" fill="#f1c40f" fill-rule="evenodd"/>
      </g>
      <g id="money" transform="translate(1377.699 26.699)" style="mix-blend-mode: multiply;isolation: isolate">
        <path id="Trazado_1022" data-name="Trazado 1022" d="M23.718,4.083A13.884,13.884,0,1,0,4.083,23.718,13.884,13.884,0,1,0,23.718,4.083ZM13.9,26.172A12.271,12.271,0,1,1,26.172,13.9,12.285,12.285,0,0,1,13.9,26.172Z" transform="translate(0 0)" fill="#f39c12"/>
        <path id="Trazado_1023" data-name="Trazado 1023" d="M71.588,61A10.588,10.588,0,1,0,82.176,71.588,10.6,10.6,0,0,0,71.588,61Zm0,19.547a8.959,8.959,0,1,1,8.959-8.959A8.969,8.969,0,0,1,71.588,80.547Z" transform="translate(-57.688 -57.688)" fill="#f39c12"/>
        <path id="Trazado_1024" data-name="Trazado 1024" d="M187.516,125.734a.814.814,0,1,0,1.629,0,3,3,0,0,0-1.28-2.379,4.476,4.476,0,0,0-1.978-.814v-.88a.814.814,0,1,0-1.629,0v.88a4.476,4.476,0,0,0-1.978.814,2.851,2.851,0,0,0,0,4.759,4.476,4.476,0,0,0,1.978.814v3.226c-.938-.229-1.629-.838-1.629-1.532a.814.814,0,1,0-1.629,0A3,3,0,0,0,182.28,133a4.476,4.476,0,0,0,1.978.814v.888a.814.814,0,1,0,1.629,0v-.888a4.475,4.475,0,0,0,1.978-.814,2.851,2.851,0,0,0,0-4.759,4.476,4.476,0,0,0-1.978-.814V124.2C186.825,124.431,187.516,125.04,187.516,125.734Zm-4.887,0c0-.694.691-1.3,1.629-1.532v3.064C183.32,127.036,182.629,126.428,182.629,125.734Zm4.887,4.887c0,.694-.691,1.3-1.629,1.532v-3.064C186.825,129.318,187.516,129.927,187.516,130.621Z" transform="translate(-171.172 -114.285)" fill="#f39c12"/>
      </g>
      <g id="Grupo_2064" data-name="Grupo 2064" transform="translate(1396.44 24.768)">
        <rect id="Rectángulo_1137" data-name="Rectángulo 1137" width="25" height="14" rx="4" transform="translate(-3.44 0.232)" fill="#d35400"/>
        <text id="_500" data-name="500" transform="translate(9.06 11)" fill="#fff" font-size="10" font-family="Nunito-Regular, Nunito"><tspan x="-9" y="0">500</tspan></text>
      </g>
    </g>
  </g>
</svg>
