<svg xmlns="http://www.w3.org/2000/svg" width="67.218" height="67.244" viewBox="0 0 67.218 67.244">
  <g id="Grupo_1962" data-name="Grupo 1962" transform="translate(-1357.017 -7.967)">
    <path id="Trazado_3978" data-name="Trazado 3978" d="M1188.65,115.609c-.013.2-.023.4-.036.6s-.032.426-.049.65-.055.455-.088.7l.049-.607.013-.614a3.588,3.588,0,0,0-.305,1.023c-.088.442-.146.978-.266,1.546.078-.231.162-.458.231-.692a14.065,14.065,0,0,1-1.014,4.125c.1-.221.195-.448.292-.672a4.768,4.768,0,0,1-.195.682c-.094.24-.2.5-.306.76.24-.929-.318.452-.581.773.383-.341-.325,1.273-.569,1.764-.266.182-.689,1.579-.887,1.582-.2.439.01.25.14.088-.659.988-.965,2.04-2.17,3.8-.555.763-.877,1.143-1.062,1.364s-.237.276-.3.344-.12.156-.318.435-.542.76-1.215,1.608l-.416.283-.042.344a5.465,5.465,0,0,0-1.277,1.014c-.438.406-.864.77-1.127.77-.24.406-.711.591-1.439,1.338.52-.094,1.377-.955,1.832-1.186a22.021,22.021,0,0,1-4.087,3.105,21.484,21.484,0,0,1-3.5,1.611c-.315.12-.646.2-.974.3s-.659.208-1,.273a20.731,20.731,0,0,1-2.043.374,22.191,22.191,0,0,1-7.692-.309c-.546-.133-1.072-.244-1.553-.39s-.923-.3-1.325-.422c-.4-.159-.753-.3-1.065-.422s-.575-.237-.783-.344c.559.234.478.068,0-.221-.435-.182-.88-.341-1.306-.549.117.14.468.309.24.26-.575-.244-1.117-.731-1.484-.7.107-.055-.715-.614-.686-.627a3.316,3.316,0,0,1-.711-.406c-.279-.218-.594-.487-.913-.754s-.62-.549-.9-.776a2.6,2.6,0,0,0-.747-.471c-.728-.7-.763-.825-.812-.971a.962.962,0,0,0-.159-.305,9.855,9.855,0,0,0-.637-.819l-.289.058c-.01-.02-.143-.169-.341-.432l-.78-1.072c-.309-.445-.637-.978-.991-1.543-.162-.289-.328-.588-.5-.893-.084-.153-.169-.305-.25-.458l-.227-.471c-.149-.315-.3-.63-.448-.939l-.38-.923c-.257-.591-.432-1.16-.6-1.637s-.276-.871-.361-1.134-.13-.393-.133-.351a3.444,3.444,0,0,0,.007-.88,26.114,26.114,0,0,1-.728-5.974c.026.208.029.4.084.24a25.911,25.911,0,0,1,2.121-10.216,30.716,30.716,0,0,1,5.49-8.553c.877-.952.341-.039,1.1-.838a18.346,18.346,0,0,0,1.4-1.55c-.143.091-.419.338-.3.153.292-.208.624-.5.968-.783-.244.318-.708.848-.032.289l-.988.89c.049.156.292-.305,1.127-.968l.666-.585.039.156a3.1,3.1,0,0,1,1.377-.38,2.01,2.01,0,0,1,1.04.244,2.705,2.705,0,0,1,.922.916c.237-.156.419-.3.578-.419a4.7,4.7,0,0,1,.656-.5l-.006.159c.5-.218,1-.442,1.527-.611-.331-.032-.136-.357-.825-.166,0-.1.529-.221,1.059-.435-.182.091-.546.341-.2.253a2.706,2.706,0,0,0,.819-.361,2.612,2.612,0,0,1,.263-.159,7.248,7.248,0,0,1,.728-.266c-.01.032-.945.491.292.253.38-.081.965-.263,1.741-.387.383-.068.812-.146,1.273-.231l1.5-.159a20.283,20.283,0,0,1,3.541-.029,22.827,22.827,0,0,1,3.82.624,24.373,24.373,0,0,1,6.793,2.865,23.514,23.514,0,0,1,3.752,2.875c-.166-.114-.793-.094-.975-.175.208.146.4.3.6.452s.416.315.614.491c-.146-.25-.315-.478-.477-.721a13.454,13.454,0,0,1,2.033,1.861,19.42,19.42,0,0,1,4.359,7.916,25.7,25.7,0,0,1,.6,2.956l-.032-.594c.062.413.107.8.149,1.176s.036.747.049,1.127C1188.65,115.219,1188.656,115.414,1188.65,115.609Z" transform="translate(911.415 -1025.84) rotate(60)" fill="#7ed6df"/>
    <g id="Grupo_3071" data-name="Grupo 3071" transform="translate(1380.361 24.768)">
      <path id="Mask" d="M5.2,22.206H2.522A2.564,2.564,0,0,1,.4,21.132,2.181,2.181,0,0,1,.229,18.9l1.452-2.949V7.713a2.242,2.242,0,0,1,.644-1.561A12.459,12.459,0,0,1,7.6,2.707a1.789,1.789,0,0,1-.036-.37A2.433,2.433,0,0,1,10.079,0,2.434,2.434,0,0,1,12.6,2.337a1.789,1.789,0,0,1-.036.37,12.459,12.459,0,0,1,5.27,3.445,2.245,2.245,0,0,1,.644,1.561v8.235L19.929,18.9a2.181,2.181,0,0,1-.172,2.234,2.564,2.564,0,0,1-2.12,1.074H14.959a4.987,4.987,0,0,1-4.88,3.506A4.987,4.987,0,0,1,5.2,22.206Zm4.879,1.169a2.56,2.56,0,0,0,2.183-1.169H7.9A2.559,2.559,0,0,0,10.079,23.374ZM2.522,19.868H17.637l-1.15-2.337H3.672Zm13.436-4.675V7.713C14.007,5.7,12.028,4.674,10.079,4.674S6.152,5.7,4.2,7.713v7.48Z" transform="translate(-2 5.754)" fill="#0d8898" stroke="#7ed6df" stroke-width="0.5"/>
      <g id="Grupo_1771" data-name="Grupo 1771" transform="translate(10.079)">
        <path id="Mask-2" data-name="Mask" d="M7.073,0A7.073,7.073,0,1,1,0,7.073,7.073,7.073,0,0,1,7.073,0Z" fill="#e74c3c"/>
        <text id="_1" data-name="1" transform="translate(6.875 11)" fill="#fff" font-size="10" font-family="Nunito-Regular, Nunito"><tspan x="-3" y="0">1</tspan></text>
      </g>
    </g>
  </g>
</svg>
