<svg xmlns="http://www.w3.org/2000/svg" width="69.603" height="69.603" viewBox="0 0 69.603 69.603">
  <g id="Grupo_1769" data-name="Grupo 1769" transform="translate(-1.199 5.211)">
    <g id="Grupo_3069" data-name="Grupo 3069">
      <path id="Trazado_3554" data-name="Trazado 3554" d="M49.25,27.688c-.013-.2-.023-.4-.036-.6s-.032-.426-.049-.65-.055-.455-.088-.7l.049.607.013.614a3.588,3.588,0,0,1-.305-1.023c-.088-.442-.146-.978-.266-1.546.078.231.162.458.231.692a14.065,14.065,0,0,0-1.014-4.126c.1.221.195.448.292.672a4.768,4.768,0,0,0-.195-.682c-.094-.24-.2-.5-.306-.76.24.929-.318-.452-.581-.773.383.341-.325-1.273-.569-1.764-.266-.182-.689-1.579-.887-1.582-.2-.439.01-.25.14-.088-.659-.988-.965-2.04-2.17-3.8-.555-.763-.877-1.143-1.062-1.364s-.237-.276-.3-.344-.12-.156-.318-.435-.542-.76-1.215-1.608L40.2,8.145,40.157,7.8a5.465,5.465,0,0,1-1.277-1.014c-.438-.406-.864-.77-1.127-.77-.24-.406-.711-.591-1.439-1.338.52.094,1.377.955,1.832,1.186A22.02,22.02,0,0,0,34.06,2.759a21.483,21.483,0,0,0-3.5-1.611c-.315-.12-.646-.2-.974-.3s-.659-.208-1-.273A20.731,20.731,0,0,0,26.55.2a22.191,22.191,0,0,0-7.692.309C18.312.641,17.785.752,17.3.9s-.923.3-1.325.422c-.4.159-.753.3-1.065.422s-.575.237-.783.344c.559-.234.478-.068,0,.221-.435.182-.88.341-1.306.549.117-.14.468-.309.24-.26-.575.244-1.117.731-1.484.7.107.055-.715.614-.686.627a3.316,3.316,0,0,0-.711.406c-.279.218-.594.487-.913.754s-.62.549-.9.776a2.6,2.6,0,0,1-.747.471c-.728.7-.763.825-.812.971a.962.962,0,0,1-.159.305,9.857,9.857,0,0,1-.637.819L5.73,8.373c-.01.02-.143.169-.341.432L4.61,9.877c-.309.445-.637.978-.991,1.543-.162.289-.328.588-.5.893-.084.153-.169.305-.25.458l-.227.471c-.149.315-.3.63-.448.939l-.38.923c-.257.591-.432,1.16-.6,1.637s-.276.871-.361,1.134-.13.393-.133.351a3.444,3.444,0,0,1,.007.88A26.115,26.115,0,0,0,0,25.079c.026-.208.029-.4.084-.24A25.911,25.911,0,0,0,2.206,35.055,30.716,30.716,0,0,0,7.7,43.609c.877.952.341.039,1.1.838A18.345,18.345,0,0,1,10.2,46c-.143-.091-.419-.338-.3-.153.292.208.624.5.968.783-.244-.318-.708-.848-.032-.289l-.988-.89c.049-.156.292.305,1.127.968l.666.585.039-.156a3.1,3.1,0,0,0,1.377.38,2.01,2.01,0,0,0,1.04-.244,2.705,2.705,0,0,0,.922-.916c.237.156.419.3.578.419a4.7,4.7,0,0,0,.656.5l-.006-.159c.5.218,1,.442,1.527.611-.331.032-.136.357-.825.166,0,.1.529.221,1.059.435-.182-.091-.546-.341-.2-.253a2.706,2.706,0,0,1,.819.361,2.613,2.613,0,0,0,.263.159,7.247,7.247,0,0,0,.728.266c-.01-.032-.945-.491.292-.253.38.081.965.263,1.741.387.383.068.812.146,1.273.231l1.5.159a20.284,20.284,0,0,0,3.541.029,22.827,22.827,0,0,0,3.82-.624,24.373,24.373,0,0,0,6.793-2.865,23.514,23.514,0,0,0,3.752-2.875c-.166.114-.793.094-.975.175.208-.146.4-.3.6-.452s.416-.315.614-.491c-.146.25-.315.478-.477.721a13.454,13.454,0,0,0,2.033-1.861,19.419,19.419,0,0,0,4.359-7.917,25.7,25.7,0,0,0,.6-2.956l-.032.594c.062-.413.107-.8.149-1.176s.036-.747.049-1.127C49.25,28.078,49.256,27.883,49.25,27.688Z" transform="translate(1.199 29.616) rotate(-45)" fill="#badc58"/>
      <g id="Grupo_3023" data-name="Grupo 3023" transform="translate(-1.696 -1.349)">
        <g id="Grupo_3022" data-name="Grupo 3022" transform="translate(20.364 17.483)">
          <g id="Grupo_3001" data-name="Grupo 3001">
            <path id="Unión_12" data-name="Unión 12" d="M4.751,19.948a3.847,3.847,0,1,1-.9-7.586c.068,0,.137,0,.2.005a14.838,14.838,0,0,1,29.263,0c.068,0,.136-.005.2-.005a3.846,3.846,0,1,1-.9,7.586,14.842,14.842,0,0,1-27.862,0Z" transform="translate(0 0.062)" fill="#e9c59b" stroke="#ce8869" stroke-miterlimit="10" stroke-width="1"/>
            <g id="Grupo_2923" data-name="Grupo 2923" transform="translate(12.995 18.615)">
              <path id="Trazado_2215" data-name="Trazado 2215" d="M1270.488,1051.377a5.744,5.744,0,1,1-11.014-2.287,8.962,8.962,0,0,0,10.539,0A5.712,5.712,0,0,1,1270.488,1051.377Z" transform="translate(-1259 -1049.09)" fill="#341e55"/>
              <path id="Trazado_2216" data-name="Trazado 2216" d="M1276.488,1088.895a5.743,5.743,0,0,1-9.7,0,13.584,13.584,0,0,1,9.7,0Z" transform="translate(-1265.895 -1083.53)" fill="#e8291c"/>
              <path id="Trazado_2217" data-name="Trazado 2217" d="M1272.545,1049.523a6.89,6.89,0,0,1-10.875,0c.051-.147.106-.292.168-.433a8.962,8.962,0,0,0,10.539,0C1272.439,1049.231,1272.494,1049.376,1272.545,1049.523Z" transform="translate(-1261.363 -1049.09)" fill="#fff"/>
            </g>
            <ellipse id="Elipse_179" data-name="Elipse 179" cx="2.473" cy="2.198" rx="2.473" ry="2.198" transform="translate(7.693 14.623)" fill="#e8291c" opacity="0.1"/>
            <ellipse id="Elipse_180" data-name="Elipse 180" cx="2.335" cy="2.198" rx="2.335" ry="2.198" transform="translate(25.276 14.623)" fill="#e8291c" opacity="0.1"/>
            <g id="Grupo_2919" data-name="Grupo 2919" transform="translate(9.175 11.603)">
              <path id="Trazado_2218" data-name="Trazado 2218" d="M1244.67,1002.085h-.834a1.751,1.751,0,1,0-3.5,0h-.834a2.585,2.585,0,1,1,5.17,0Z" transform="translate(-1239.5 -999.5)" fill="#1a1a1a"/>
            </g>
            <g id="Grupo_2920" data-name="Grupo 2920" transform="translate(22.691 11.603)">
              <path id="Trazado_2219" data-name="Trazado 2219" d="M1348.67,1002.085h-.834a1.751,1.751,0,0,0-3.5,0h-.834a2.585,2.585,0,1,1,5.17,0Z" transform="translate(-1343.5 -999.5)" fill="#1a1a1a"/>
            </g>
            <path id="Trazado_2220" data-name="Trazado 2220" d="M1209.629,908a7.878,7.878,0,0,1-5.9-4.4,20.243,20.243,0,0,1-5.354.705c-5.065,0-9.518-1.793-12.074-4.5.008.141.012.283.012.425a7.871,7.871,0,0,1-6.19,7.689,14.852,14.852,0,0,1,5.15-9.406c.229-.193.464-.379.7-.56A14.877,14.877,0,0,1,1209.629,908Z" transform="translate(-1176.187 -895)" fill="#1a1a1a" stroke="#1a1a1a" stroke-width="1"/>
            <g id="Grupo_2921" data-name="Grupo 2921" transform="translate(33.191 14.188)" opacity="0.3">
              <path id="Trazado_2221" data-name="Trazado 2221" d="M1435.107,1022.349v-.574a.46.46,0,1,0,0-.919h-.238l-.045-.233a2.026,2.026,0,0,1,.351-1.533,1.824,1.824,0,0,1,1.485-.589v.574a1.289,1.289,0,0,0-1.04.378,1.307,1.307,0,0,0-.248.862,1.034,1.034,0,0,1-.265,2.034Z" transform="translate(-1434.797 -1018.5)" fill="#e8291c"/>
            </g>
            <g id="Grupo_2922" data-name="Grupo 2922" transform="translate(3.034 14.188)" opacity="0.3">
              <path id="Trazado_2222" data-name="Trazado 2222" d="M1173.847,1022.349a1.034,1.034,0,0,1-.264-2.034,1.307,1.307,0,0,0-.249-.862,1.289,1.289,0,0,0-1.04-.378v-.574a1.824,1.824,0,0,1,1.485.589,2.026,2.026,0,0,1,.35,1.533l-.044.233h-.238a.46.46,0,0,0,0,.919Z" transform="translate(-1172.294 -1018.5)" fill="#e8291c"/>
            </g>
          </g>
          <g id="Grupo_2924" data-name="Grupo 2924" transform="translate(7.376 9.995)">
            <rect id="Rectángulo_1322" data-name="Rectángulo 1322" width="7" height="5" transform="translate(1.955 0.871)" fill="#fff"/>
            <rect id="Rectángulo_1323" data-name="Rectángulo 1323" width="8" height="4" transform="translate(12.955 0.871)" fill="#fff"/>
            <path id="sunglasses" d="M22.369,20.452h-.406a2.222,2.222,0,0,0-1.3-1.477,4.148,4.148,0,0,0-1.872-.419H14.424l-.017,0v0H3.977a4.149,4.149,0,0,0-1.872.419A2.222,2.222,0,0,0,.8,20.452H.379a.379.379,0,1,0,0,.758H.758v3.054a3.249,3.249,0,0,0,2.368,2.823,3.643,3.643,0,0,0,1.035.147h0a4.184,4.184,0,0,0,1.318-.218c1.918-.637,5.136-2.091,5.134-4.631a6.323,6.323,0,0,0,0-.993,1.308,1.308,0,0,1,1.534.013,6.042,6.042,0,0,0,0,.944c0,2.577,3.218,4.031,5.136,4.668a4.18,4.18,0,0,0,1.318.218,3.643,3.643,0,0,0,1.035-.147,3.251,3.251,0,0,0,2.368-2.843V21.21h.362a.379.379,0,0,0,0-.759ZM2.922,22.236a.379.379,0,1,1-.536-.536L3.9,20.184a.379.379,0,0,1,.536.536Zm4.17-1.517L4.438,23.374a.379.379,0,1,1-.536-.536l2.654-2.654a.379.379,0,0,1,.536.536Zm3.405-.133a3.183,3.183,0,0,0-.561-1.272h2.893a3.191,3.191,0,0,0-.564,1.28A2.129,2.129,0,0,0,10.5,20.587Zm3.53,1.761a.379.379,0,0,1-.268-.647l1.517-1.517a.379.379,0,1,1,.536.536L14.3,22.236A.378.378,0,0,1,14.028,22.347Zm4.438-1.628-2.654,2.654a.379.379,0,1,1-.536-.536l2.654-2.654a.379.379,0,1,1,.536.536Z" transform="translate(0 -18.556)" fill="#1f1c44"/>
          </g>
        </g>
      </g>
    </g>
  </g>
</svg>
