<svg xmlns="http://www.w3.org/2000/svg" xmlns:xlink="http://www.w3.org/1999/xlink" width="1588.069" height="388.133" viewBox="0 0 1588.069 388.133">
  <defs>
    <filter id="Trazado_3927" x="314.218" y="40.011" width="570.714" height="348.122" filterUnits="userSpaceOnUse">
      <feOffset dx="4" dy="-6" input="SourceAlpha"/>
      <feGaussianBlur stdDeviation="7.5" result="blur"/>
      <feFlood flood-opacity="0.161"/>
      <feComposite operator="in" in2="blur"/>
      <feComposite in="SourceGraphic"/>
    </filter>
    <filter id="Uni贸n_18" x="631.852" y="0" width="956.217" height="302.16" filterUnits="userSpaceOnUse">
      <feOffset dx="4" dy="-6" input="SourceAlpha"/>
      <feGaussianBlur stdDeviation="7.5" result="blur-2"/>
      <feFlood flood-opacity="0.161"/>
      <feComposite operator="in" in2="blur-2"/>
      <feComposite in="SourceGraphic"/>
    </filter>
    <filter id="Trazado_3931" x="390.273" y="3.454" width="516.04" height="356.207" filterUnits="userSpaceOnUse">
      <feOffset dx="4" dy="-6" input="SourceAlpha"/>
      <feGaussianBlur stdDeviation="7.5" result="blur-3"/>
      <feFlood flood-opacity="0.161"/>
      <feComposite operator="in" in2="blur-3"/>
      <feComposite in="SourceGraphic"/>
    </filter>
  </defs>
  <g id="Grupo_3449" data-name="Grupo 3449" transform="translate(-1481.035 -146.449)">
    <g id="Grupo_3445" data-name="Grupo 3445" transform="translate(1515.565 728.471) rotate(14)">
      <path id="Trazado_3926" data-name="Trazado 3926" d="M0,0,.237.123.144.134Z" transform="translate(103.409 -415.714)" fill="#6f8dc9"/>
      <g transform="matrix(0.97, -0.24, 0.24, 0.97, -174.31, -556.38)" filter="url(#Trazado_3927)">
        <path id="Trazado_3927-2" data-name="Trazado 3927" d="M.546,59.342A15.2,15.2,0,0,0,.768,57.1c.588-.019,1.215.916,1.745-.731.334-1.234.139-1.569.361-2.6.907.316.456,1.841.013,3.539-.229.85-.528,1.71-.69,2.493a4.009,4.009,0,0,0-.1,1.807,14.263,14.263,0,0,0,.634-2.04c.178-.635.311-1.237.423-1.777a4.6,4.6,0,0,1,.765-2.233c-.273,1.322-.212,1.581-.009,1.444.149-.589.312-1.173.477-1.758A10.6,10.6,0,0,1,4.295,53c.2.3.353.625.5.856.288-.949.6-1.89.925-2.824-.442-.533-.615-1.376-2.469,1.513.976-4.111,1.37-.437,2.444-4.466-.457-.163-1.079,1.277-1.493.668.1-.392.35-1.654.7-2.793.386-1.12.871-2.1,1.319-1.952-.556,2.886.235,1.174,1.339-1.541s2.786-6.384,3.305-7.718c1,.678,2.912-2.52,5.1-5.395,2.142-2.906,4.469-5.517,4.872-4.372,1.7-2.6,1.814-2.644,1.935-3.587.469.158,1.17-.788,1.877-1.733,1.678-.427-1.128,2.833.492,1.564.134-.125.269-.247.4-.37-.7-1.276,3.726-3.175,3.424-3.836A19.335,19.335,0,0,1,25.591,18.8c2.846-2.737,3.824-2.615,6.24-4.359.047-.528,1.312-1.975,1.934-1.756C32.5,13.722,31.836,14.57,32.2,15.1c-3.1,2.732-4.331,3.011-5.579,4.744q1.307-1.152,2.669-2.238c1.3-1.034,2.65-2.007,4.02-2.947-.081-.169.116-.547.8-1.3,1.352-.377,2.1-1.392,3.34-2.663a17.635,17.635,0,0,1,2.372-1.987A16.117,16.117,0,0,1,43.737,6.9c1.158,1.446,2.4-.264,3.544-1.464,1.225.253.35,1.108-.441,1.794-.074.067-.145.131-.217.195.412-.172.832-.322,1.246-.486.955-.822,2.02-1.656,1.813-2.387a22.206,22.206,0,0,0,2.744-.714c.782-.23,1.455-.457,2.082-.673a9.25,9.25,0,0,1,3.823-.653c-.947.306-2.443.571-2.417.951,3.653-1.292,3.076-.25,4.57-.264.55-.111,1.1-.222,1.652-.321-.2-.666-3.384.155-2.6-1.016,4.008-1.079,2.673.5,5.078.312-.48-.462.52-1.214,1.96-1.637A6.729,6.729,0,0,1,70.924.46,17.094,17.094,0,0,0,67.8.878a5.548,5.548,0,0,0-1.951.736c.768-.059,1.49-.081,1.262.259C71.961.028,78.509-.48,82.474.466L83.4.7c-1.818.337,5.815,1.6,0,0,.1-.019.2-.039.353-.057,2.1-.2,5.718.482,9.405,1.77a82.724,82.724,0,0,1,10.24,4.532c.123.783-.871.342-1.936-.125-1.053-.494-2.229-.922-2.31-.427a8.248,8.248,0,0,1,2.35.85,7.536,7.536,0,0,1,1.91,1.466A24.9,24.9,0,0,0,100.8,7.6a36.379,36.379,0,0,1,9.611,7.211,17.358,17.358,0,0,0-6.762-5.985c1.239-.37,4.039,1.471,5.847,3.5a10.164,10.164,0,0,1,1.848,2.688c.213.5.208.773-.083.72q.747.864,1.429,1.785a.96.96,0,0,0,.407-.772l-.984-.187c.571-.325.835-.317.978-.178a4.029,4.029,0,0,0-.124-.669,11.4,11.4,0,0,1,1.062,1.211l-.763-.145c.058.243.111.49.351.537q1.226-.756,2.485-1.448c.664-.522,1.388-1.1,2.174-1.624a6.851,6.851,0,0,1,4.245-1.463,20.322,20.322,0,0,0-2.941,1.35q1.662-.762,3.364-1.41c.3-.177.541-.326.72-.445.478-.289.629-.363.97-.166.194-.068.391-.13.587-.2.916-1.059,4.07-2.2,7.111-2.637a20.614,20.614,0,0,1,5.455-.235q1.275-.17,2.553-.3a2.073,2.073,0,0,1,1.734-.808,3.1,3.1,0,0,0,1.632.547c.716-.04,1.431-.085,2.15-.107.115-.427-.037-.935,1.293-1,5.093.677,9.406,1.086,13.771,1.273a.507.507,0,0,0,.085.479q1.667.207,3.33.46c.129.011.266.033.409.059,1.576.248,3.145.529,4.709.835a.154.154,0,0,1,.024,0l0,0q1.5.294,2.992.619c.638.011,1.345.067,2.023.107a.575.575,0,0,0,.025.349l.078.018q2.414.566,4.809,1.21a14.716,14.716,0,0,1,3.553.753.184.184,0,0,0-.106.231q1.37.4,2.732.829a1.836,1.836,0,0,1-.232-.313c3,1.226,4.341,1.285,4.045.143,1.746.706,4.435,1.479,4.57,2.079-1.9-.215,2.668.958,2.977,2.133q4.13,1.65,8.165,3.534a5.81,5.81,0,0,0,1.344.2.556.556,0,0,0-.173.349q3.458,1.647,6.833,3.457c.033-.134-.2-.51-.858-1.277,4.13,2.631,6.976,4.314,9.577,5.741,1.291.73,2.545,1.351,3.836,2.036l4.152,2.255c-.383.3-.73.614-.714,1.06.639.447,1.264.912,1.9,1.369.749-.313,2.32.455,3.873,1.347a3.3,3.3,0,0,0,1.105,2.39q1.656,1.3,3.271,2.639c1.746,1.151,3.706,2.223,5.275,3.08a.562.562,0,0,0,.189.5c.293-.152.6-.32.913-.49,1.144.819,2.8.145,4.654-.465a8.828,8.828,0,0,1,4.356-.644c.975-.169,1.955-.322,2.939-.45a19.194,19.194,0,0,1,4.555-.943l2.236-3.679c.263.557,1.038-.157,1.878-1.008q.756-.964,1.536-1.909c-.416-.058-.327-.208-.5-1.279-.225,1.362-3.959,5.081-1.9,1.677,2.995-2.784,6.228-6.692,9.969-9.632a8.9,8.9,0,0,0-2.669,3.7q1.48-1.554,3.023-3.043c1-1.5,1.47-2.689-.126-2.439,1.834-.817,5.1-3.564,8.353-5.961,3.211-2.438,6.317-4.629,7.044-5.2,6.346-2.313,10.4-4.285,13.985-5.94l2.607-1.129c.863-.316,1.72-.58,2.584-.818.259-.064.52-.125.78-.187,1.943-.653,3.908-1.228,5.887-1.748a16.154,16.154,0,0,1,3.415-1.619,15.518,15.518,0,0,1,3.494-.8,11.052,11.052,0,0,1,2.789-.088c.032-.483.563-.822,1.391-1.1a17.19,17.19,0,0,1,3.184-.485c1.22-.12,2.529-.237,3.73-.443A11.494,11.494,0,0,0,337.929.4a15.88,15.88,0,0,0,4.092.488c1.354-.02,2.693.049,4,.022a28.4,28.4,0,0,1,3.754.173A8.045,8.045,0,0,1,353,2.334c-.835-1.065.735-1.03,2.73-.8,2,.158,4.351.864,5.2.579.061.467-.529.988.907,1.347-.227-.427.365-.489,1.321-.337a11.667,11.667,0,0,1,1.638.381c.589.2,1.206.445,1.8.7,2.138.917,3.875,1.991,2.673,2.164a12.473,12.473,0,0,1,2.26.491c1.085.349,2.111.652,2.346.364-.884-.405-2.339-.845-2.229-1.2.739.24,1.441.451,1.351.078,4.959.67-1.695.437,4.446,2.392.153-.659.316-.749,1.2-.543a49.939,49.939,0,0,0,5.555,1.377c.264,1.718-3.53-.076-4.607.462a8.613,8.613,0,0,1,1.775,1.143c.091.039.181.082.272.122-.658-.695,0-.907,1.228-.822a17.09,17.09,0,0,1,2.235.337,21.372,21.372,0,0,1,2.353.778,16.631,16.631,0,0,1,2.527,3.047,20.391,20.391,0,0,0-3.482-1.071c.671.335,1.339.673,2,1.023a21.724,21.724,0,0,1,2.17.626,50.662,50.662,0,0,1,5.273,2.5,38.252,38.252,0,0,1,5.248,3.4c.784.579,1.505,1.138,2.132,1.656a17.1,17.1,0,0,1,1.467,1.528A4.223,4.223,0,0,0,402.312,23a25.448,25.448,0,0,1,4.029,2.837l2.173,1.708c.679.58,1.308,1.144,1.9,1.59-.378.658-1-.039-1.771-.908a5.882,5.882,0,0,0-2.18-1.642q2.7,2.34,5.218,4.893c.123-.094.418.014,1.1.578a4.513,4.513,0,0,0,.433,1c.029.032.061.061.09.092l2.19,2.529c-.453-1.059-1.767-2.989.1-1.036a8.981,8.981,0,0,0,1.441,2.814l.831.959a.8.8,0,0,0,.662.266c-.951-1.188-1.827-2.325-1.005-2.356-.207,1.333,6.111,6.2,4.432,4.045,2.685,3.162,2.05,4.21,3.369,5.723,1.869,2.149,2.636,1.866,4.671,4.327.082.1,2.871,3.695,5.367,6.9.707-1,5.4,3.23,4.672,4.325-.7-.688-1.608-1.872-1.93-1.685,4.438,4.39,3.392,5.191,5.287,7.919l.284.328c.585-1.087-4.631-8.028-1.9-6.271-1.006.889,3.337,2.685,2.121,3.082-2.366-2.313,2.223,3.373,1.507,3.529,5.445,3.04,14.483,14.993,17.527,21.215-1.5-3.093.246-1.976,2.671-.366-1.869-.364-1.4.005.383,2.789,2.323.126,4.494,5.5,3.432,5.21,3.527.269,10.323,11.549,14.838,13.954-.019,2.522,4.311,6.413,6.487,7.637l1.5,2.025,2.434,3.294-3.763.217c-7.7.447-19.026,1.394-27.281,4.339-1.575-1.043,4.014-.793,2.442-1.834-2.529.529-2.405,1.451-4.959,1l.036,1.143c-11.01,2.08-20.958,3.5-24.811,4.238-2.982-1.237-8.094.781-10-.663-7.459,1.907-29.229,4.682-33.532,4.559-8.616,2.627-3.93,1.324-13.663,1.705,1.441,1.813-6.021.753-3.681,1.983l-4.969.621c-1.211-.563,3.683-1.739-.043-1.522.3.682-1.381,1.012-1.2,1.675-5.411.731-6.893.368-9.914,2-3.383.7-2.522-.446-4.99-.144-.315.53-13.551,3.028-18.613,3.085,3.807-1.191-3.182-.894-3.785-1.437-.466.6-1.473.827.034,1.142-3.381.7-2.521-.447-4.991-.143-.331,2.142-2.245.264-6.213.774.048,1.384-6.28,1.254-1.2,1.676-4.412-.119-6.358,2.077-7.439,1.309,1.507-.068,4.249-1.632,1.206-1.3-3.047,1.345-6.162,2.678-13.62,3.226-.507-1.6-5.526.767-3.786-1.437-7.468,1.288-15.771,3.3-21.108,3.011,3.083,1.129-1.868-.195-1.209,1.295-6.216.792-6.967.1-14.9,1.857-1.732-.016-.231-1.44-2.531-1.211-3.255,2.975-6.075.774-8.694,1.084-3.673.436-5.789,3.244-11.137,2.916.11-1.717-6.519,1.381-7.489-.214-1.864,1.758-8.78,1.568-7.455.929-2.846,1.324-6.335,1.093-8.673,1.844,2.14-.284,3.192-.1,3.748.3-6.646-.344-25.385,4.968-29.836,2.954-2.6,1.691-4.622.7-7.466.547-16.677,3.126-32.694,4.45-45.942,6.489,2.982.4-2.251.381-2.5-.071a7.181,7.181,0,0,1-2.451,1.451c-7.88-.654-17.306,2.663-23.638,1.8-7.287,2.84-24.783,2.949-28.559,3.94-.375.1,1.332.6,1.267.606-7.391,1.094-13.068.946-19.905,1.715-14.352,1.616-30.027,5.4-45.918,7.249.2-.859-1.05-1.084-3.763-.675-1.662.155-3.327.352-4.989.579l-1.115.15v-1.127c-.013-11.376-1.285-22.89.648-32.5-.2-7.228,0-14.949.337-22.8V62.968c.063-.384.148-.764.217-1.147-.532.853-1.11,1.3-1.762.913.244-1.54.769-3.692.423-4a4.6,4.6,0,0,0-.71,2.719C.777,62.26.71,62.772,0,62.51.237,61.329.422,60.272.546,59.342ZM6.672,45.736c.077,1.224.326.964.63,1.1.336-.8.7-1.6,1.061-2.387C7.972,44.3,7.518,44.195,6.672,45.736ZM98.2,5.518c-2.089-.822-3.126-1.048-4-1.34a28.493,28.493,0,0,1-3.178-1.239c1.276,1.309.425.93-.794.357-1.213-.608-2.87-1.292-3.019-.9a.424.424,0,0,0,.1.5,53.252,53.252,0,0,1,8.785,2.548A13.8,13.8,0,0,1,98.2,5.518Zm29.08,5.711c-.077.028-.129.056-.195.085.091-.028.183-.049.274-.077ZM154.6,8.387a.356.356,0,0,1-.013.148c.744.047,1.488.1,2.231.167A10.262,10.262,0,0,0,154.6,8.387ZM348.032,1.439c-1.646-.027-6.343.687-6.385.068-1.446.083-.74.385-.041.378-.08.371-1.576.311-2.559.4.056.184.331.3.717.36.663-.009,1.326,0,1.988,0l.1-.009c1.29-.181,2.5-.337,2.274-.683,1.746.245.014.666-1.353.678l.011.014q1.882.03,3.76.135C346.635,2.183,348.179,2.133,348.032,1.439Zm98.155,128.07c.195-.576-.729-.662-1.121-.98l-1.541.207C443.894,129.218,444.191,129.732,446.187,129.508Zm-25.062,2.236-2.3.308a5.271,5.271,0,0,1,1.257.326Q420.6,132.031,421.124,131.744Zm-17.187,2.646a5.135,5.135,0,0,1,1.075-.482l-1.746.234C403.057,134.308,403.183,134.425,403.937,134.39Zm-66.195,8.551-.888.119a.248.248,0,0,1,.009.069Zm-23.229,3.354c1.31-.2,2.962-.514,4.772-.875l-11.018,1.48C310.467,146.761,312.565,146.592,314.514,146.295Zm-48.425,6.8c3.942-.52,8.352-1.369,12.912-2.265l-25.746,3.458C257.377,154.015,261.674,153.675,266.088,153.094ZM192.8,162.607c.385-.119.83-.245,1.3-.376l-8.549,1.148C187.969,163.12,190.375,162.858,192.8,162.607Z" transform="translate(378.46 68.51) rotate(14)" fill="#6f8dc9"/>
      </g>
    </g>
    <g transform="matrix(1, 0, 0, 1, 1481.03, 146.45)" filter="url(#Uni贸n_18)">
      <path id="Uni贸n_18-2" data-name="Uni贸n 18" d="M-5986.58,15468.678c.268-.416,1.568-.524,1.51-1.033-3.04.249-3.933,1.134-7.939,1.095-.532-.815,1.433-.889,1.46-1.541-5.179.252-8.215,2.077-9.647.1-3.191.043-1.91,1.406-6.332,1.08-1.208-1.006-5.016-.986-9.159-.967-4.627.023-9.67.042-11.988-1.363.237,1.557-3.544,1.425-7.788,2.621-.252-.87-2.66-.742-4.67-.613-2.17.136-3.882.275-1.914-.847-24.284.776-41.439.485-53.2-1-1.875.105-1.27.939-1.46,1.542,4.826.679-3.684.423-1.708-1-6.313.951-12.346-.047-17.533,1.7-9.17-2.752-33.31-1.953-43.5-.582-1.293-.438-1.844-1.13-1.81-2.019-4.224.722-10.424.854-11,2.655-3.82-1.564-.606-1.25-6.476-.442-.57-2.128-11.666-1.849-20.37-1.568-5.831.186-10.591.372-10.381-.163-1.58.1-1.04.419-.291.492-11.55-.508-22.374-.337-33.163-.163-13.176.214-26.291.424-40.6-.609.089.493,2,.377,3.261.474-18.55.707-28.876-.189-46.766-1.06-.951.536-.8,1.763-7.889,1.607.811-.419,1.6-.843,1.452-1.541-1.953.244-3.234.683-3.055,1.557-14.621-2.058-30.192-1.592-43.509-.583,8.859-1.467-12.513-1.471-6.534-.951a134.4,134.4,0,0,0-17.036.151c-9.4.447-19.252.894-26.52-1.242-14.5,1.759-55.54,0-82.091-.205a.514.514,0,0,1,.144-.544h-2a1.973,1.973,0,0,1-1.316,1.083,70.129,70.129,0,0,0-7.761-.244l.376,1.6a29.184,29.184,0,0,0-3.036,1.3l-.451-2.8-.78.035-2.892.147c-.307.031-.613.07-.917.089l-2.146.141.039-.074.776-1.657q.437-.933.932-1.8l-.108-.128c.085-.008.128-.012.2-.016a15.233,15.233,0,0,1,2.042-2.826c.4-.986.808-1.965,1.243-2.932a17.644,17.644,0,0,1,.722-2.97,32.217,32.217,0,0,1,2.861-5.87,35.4,35.4,0,0,1,5.148-6.519c.431-.609.866-1.219,1.313-1.82a7.579,7.579,0,0,0-1.856,1.649,9.45,9.45,0,0,1,1.689-3.646,19.9,19.9,0,0,1,1.266-1.553c.462-.47.947-.9,1.405-1.312,1.84-1.639,3.308-2.939,2.842-4.252,6.829-5.823,14.512-12.252,23.4-17.56a88.522,88.522,0,0,1,13.988-6.855c2.461-.831,4.915-1.682,7.4-2.295a57.737,57.737,0,0,1,7.461-1.362c-1.25-.334.858-.788,4.224-1.254a69.445,69.445,0,0,1,10.75-.151c.194,0,.392,0,.586,0,.167,0,.333.008.5,0-.155-1.01,3.6-1.246,8.564-.621a105.807,105.807,0,0,1,6.1-11.608c2.131-4.2,4.468-8.323,6.9-12.334a136.106,136.106,0,0,1,7.846-13.976,153.991,153.991,0,0,1,12.369-15.786c.369-.415.734-.812,1.1-1.219a208.52,208.52,0,0,1,22.933-25.014c1.53-1.615,3.055-3.187,4.6-4.674,2.543-2.647,5.272-4.88,7.8-7.089q2-1.526,3.944-2.9a33.008,33.008,0,0,1,3.906-2.469c-1.417.772,5.031-.159,2.749-1.725,1.782-.741,3.75-1.622,5.769-2.655,1.009-.52,2.027-1.071,3.052-1.638,1.056-.513,2.124-1.025,3.183-1.538a41.542,41.542,0,0,1,6.316-2.651,21.56,21.56,0,0,1,5.785-1.234,23.477,23.477,0,0,1,4.911-2.307,42.006,42.006,0,0,1,6.119-1.541,53.839,53.839,0,0,1,9.146-.846c3.793-.556,7.613-.947,11.449-1.2q4-.36,8-.527a175.051,175.051,0,0,1,17.6.162,288.026,288.026,0,0,1,33.9,4.123c3.972-5.831,7.609-11.853,12.419-17.128a44.5,44.5,0,0,1,8.316-7.35,34.375,34.375,0,0,1,10.2-4.542,46.692,46.692,0,0,1,22.028-.035,75.288,75.288,0,0,1,19.318,7.737,100.661,100.661,0,0,1,54.321-44.479c23.375-8.211,49.581-8.894,75.118-3.19a134.86,134.86,0,0,1,26.252,8.56,82.916,82.916,0,0,1,21.294,13.67,44.82,44.82,0,0,1,9.942-3.84,55.139,55.139,0,0,1,13.242-1.592,78.287,78.287,0,0,1,24,4.069c-1.735,1.933-6.588.885-12.75-.307a93.659,93.659,0,0,0-10-1.5,40.4,40.4,0,0,0-10.171.338,41.255,41.255,0,0,0-12.656,4.355c.28.269.567.517.839.792l-1.848-.232c-.342.2-.679.4-1.017.609.427.385.877.749,1.3,1.149l-2.609-.326c.431-.287.87-.556,1.313-.823-.318-.287-.641-.574-.967-.854l-1.495-.186c.256-.159.524-.3.78-.447-8.079-6.755-17.983-11.623-28.007-15.125-1.786-.629-3.579-1.2-5.381-1.755,12.924,4.62,25.417,11.29,34.855,20.983a42.635,42.635,0,0,1,11.62-4.937c11.6-2.993,23.9-1.619,35.6.955.485.108.971.225,1.46.341,1.949-.307,5.156.175,8.122.874.772.92-1.537.66-2.054.893q1.107.385,2.2.815c-.245-.311-.26-.481-.07-.543a7.966,7.966,0,0,1,3.335.9c3.11,1.191,6.631,3.8,5.781,2.046,3.051,1.976,3.393,3.249,4.775,5.144a3.117,3.117,0,0,1-1.906-.877,19.373,19.373,0,0,1-2.035-2.372c.175.912.082,1.273-.07,1.472a21.5,21.5,0,0,1,2.337,2.4c.1-.07.194-.141.295-.2.275-.155.59-.175,1.149.407a5,5,0,0,1,.963,1.417,7.544,7.544,0,0,1,.5,1.065c.206-.059.413-.116.62-.171a6.955,6.955,0,0,0-.4-.763c-.524-.916-.8-1.51,1.339-.008q.067.259.117.5a47.033,47.033,0,0,1,21.263.158,75.106,75.106,0,0,1,19.318,7.737,100.625,100.625,0,0,1,54.321-44.479c23.379-8.211,49.584-8.895,75.118-3.191a134.731,134.731,0,0,1,26.256,8.561,82.843,82.843,0,0,1,21.29,13.669,44.592,44.592,0,0,1,9.943-3.839,54.894,54.894,0,0,1,13.242-1.592,78.317,78.317,0,0,1,24,4.068c-1.735,1.934-6.584.885-12.75-.307a93.908,93.908,0,0,0-10-1.5,40.224,40.224,0,0,0-10.167.338,41.213,41.213,0,0,0-12.656,4.356c.275.264.563.516.834.788l-1.848-.229c-.342.2-.68.4-1.017.609.427.385.877.749,1.3,1.149l-2.609-.33c.431-.283.87-.551,1.313-.819-.318-.291-.641-.574-.967-.854l-1.491-.19c.252-.155.52-.291.776-.446-8.079-6.752-17.983-11.624-28.007-15.122-1.786-.629-3.58-1.2-5.377-1.755,12.924,4.616,25.414,11.29,34.851,20.984a42.7,42.7,0,0,1,11.62-4.938c11.6-3,23.9-1.623,35.6.955.485.108.975.225,1.464.342,1.945-.307,5.151.175,8.118.869.772.924-1.538.664-2.054.894.738.26,1.471.527,2.2.818-.241-.311-.26-.481-.066-.543a7.927,7.927,0,0,1,3.331.9c3.11,1.2,6.635,3.809,5.781,2.046,3.051,1.98,3.4,3.254,4.775,5.148a3.148,3.148,0,0,1-1.906-.878,19.025,19.025,0,0,1-2.03-2.372c.175.912.078,1.273-.074,1.472a21.2,21.2,0,0,1,2.337,2.4,3.313,3.313,0,0,1,.3-.2c.275-.155.59-.175,1.149.4a5.03,5.03,0,0,1,.963,1.421,12.162,12.162,0,0,1,1.06,2.788c.827-.206.221-1.735-.342-2.659-.524-.913-.8-1.507,1.339,0a9.834,9.834,0,0,1,.322,2.3,7.629,7.629,0,0,1-.307,1.751c.089.256.175.489.241.672l.027.065.012.249c.147,2.356.521,1.972.862,1.588.3-.334.579-.672.66.812-1.646,2.787-.283,7.563-1.429,9.8,1,4.041,2.093,1,.59,7.989,1.662,3.25.633.7.536,3.16-.221,5.758,2.617,23.721-.788,22.61q.081-5.271-1.576-4.67c.144-3.021.567-2.765.994-2.512s.85.512.994-2.516c-.175-3.3-2.252-.155-2.077-4.612-.023.073-.043.147-.062.225v10.94c.419-.065.78,1.211,1.2,2.484.528,1.619,1.137,3.238,2.069,2.116.078,9.775-1.18,8.16.144,14.47l-1.522.151c.834,3.145.209,11.2,2.015,11.072-1.817.438-.667,6.01-3.393,3.548.866,5.137,1.433,4.97,1.615,9.492.687-.562.384-4.064.446-6.479,2.275-.478,2.193,7.016,2.174,14.268-1.2-3.071-.559.462-1.506,1.759.237,3.078,2.325-.1,1.588,6.281-.524-1-.563-3.649-1.557-3.063q-.751,2.429-1.475,4.974c.058,2.9.485,1.906.877.9.373-.955.714-1.914.664.552a33.783,33.783,0,0,0-.9,11.355c.87-.023,1.3-1.328,1.487-3.374,1.106-.372.291,5.684.594,7.99-.377,5.151-.7-2.784-.559-4.771-1.192.613-.889,5.676-2.489,5.074-.637-1.487-.679-4.981-1.463-5.975v11.743a10.157,10.157,0,0,1,3.509-4.363c-.249,3.37-.757,3.486-1.506,1.759a12.885,12.885,0,0,1-.427,8.091c.38,1.277,2.958,5.986,2.535-.253,1.495,1.25.594,2.353.574,6.383-1.052.784-1.354-.971-2.046-1.409.979,2.97.093,4.037.078,8.044,2.8,1.584-.753,4.64,1.588,6.273-.058,2.462-1.766,11.208.093,9.647-1.662,5.742.272,19.563-1.852,17.886-.1,5.89,1.429,6.255,2.621,7.784-.264,3.378-1.021,5.3-1.444,8.191,2.158-4.483-.691,4.612.365,7.252l.85,2.128-4.938,1.964a.961.961,0,0,0-.684.727c-2.566-.707-7.566-.6-9.8-1.429-3.6.326,2.031.776-1.452,1.541a25.987,25.987,0,0,0-6.534-.043,55.719,55.719,0,0,1-6.324.167c-2.221-1.944-3.42-1.9-8.394-3.471-4.67.474,1.122,1.627.252,2.539-8.25-.761-18.25-.857-22.4,1.238-4.488-.562-6.825-1.032-11.309-.392.271-.415,1.568-.524,1.51-1.037-3.04.253-3.929,1.138-7.939,1.1-.532-.814,1.437-.889,1.459-1.541-5.179.253-8.215,2.073-9.647.1-3.191.038-1.906,1.405-6.332,1.079-1.207-1.01-5.016-.986-9.158-.967-4.624.02-9.67.043-11.988-1.362.241,1.557-3.541,1.425-7.788,2.62-.252-.874-2.659-.745-4.67-.617-2.17.14-3.882.275-1.914-.847-24.284.78-41.439.485-53.2-.994-1.875.1-1.27.94-1.456,1.542,4.822.675-3.688.423-1.712-1-6.312.947-12.345-.047-17.532,1.7-9.166-2.752-33.31-1.952-43.5-.586-1.292-.438-1.844-1.13-1.809-2.015-4.224.722-10.424.854-11,2.651-3.816-1.561-.6-1.25-6.476-.442-.571-2.124-11.666-1.845-20.366-1.564-2.373.075-4.567.151-6.323.178l.817,2.043-4.938,1.964a.96.96,0,0,0-.683.727c-2.566-.707-7.567-.6-9.8-1.429-3.6.326,2.031.776-1.452,1.541a26.125,26.125,0,0,0-6.534-.043,56.69,56.69,0,0,1-6.324.171c-2.22-1.945-3.42-1.9-8.4-3.475-4.667.478,1.125,1.627.256,2.539-8.25-.761-18.25-.858-22.408,1.238C-5979.759,15468.507-5982.1,15468.037-5986.58,15468.678Zm6.32-1.949c-.21,1.044,1.829,2.081,4.833.819-1.258-.1-3.172.02-3.265-.478-.609-1.161,4.593-.605,4.67-1.568a19,19,0,0,0-2.4-.167C-5978.971,15465.335-5980.124,15466.029-5980.26,15466.729Zm30.4-.959c2.815-.155,3.58-.908,3.017-2.058h-2.057l-1.741.026c1.382.3,2.433.708,2.342,1.507a29.331,29.331,0,0,0-3.149-.478h-.116C-5951.216,15465.176-5949.9,15465.257-5949.858,15465.77Zm260.214-1.918c-.206,1.041,1.828,2.081,4.833.819-1.258-.1-3.171.016-3.265-.478-.61-1.165,4.593-.609,4.67-1.568a19.02,19.02,0,0,0-2.4-.171C-5688.355,15462.454-5689.5,15463.153-5689.644,15463.852Zm-236.2.66c-1.1-.085-1.7-.346-1.7-.8h-2.85a15.753,15.753,0,0,1-3.533.373C-5936.258,15465.646-5925.477,15465.339-5925.846,15464.512Zm-371.658.648c-.485-1.079.947-.808,2.776-.536s4.08.552,5.163-.559a2.073,2.073,0,0,0-.52-.354h-9.337C-6299.554,15464.3-6302.089,15465.086-6297.5,15465.16Zm131.927-.295a25.871,25.871,0,0,1,5.113-1.153h-6.8A3.427,3.427,0,0,1-6165.577,15464.865Zm193.066-.393c.391.735,6.448.327,7.763-.538q-1.961.015-3.934.02A10.558,10.558,0,0,1-5972.511,15464.473Zm-28.942.283c2.741.048,4.271-.269,4.628-.926-1.366.028-2.688.048-3.979.059C-6000.289,15463.987-6000.326,15464.229-6001.453,15464.756Zm-98.16-.038a1.711,1.711,0,0,0-.866-1.006h-5.5C-6103.9,15464.182-6101.154,15464.461-6099.613,15464.718Zm160.913-.078a5.067,5.067,0,0,0,2.881-.928h-4.34A1.452,1.452,0,0,1-5938.7,15464.64Zm-94.957-.069c1.759-.055,2.589-.385,2.935-.858h-3A.939.939,0,0,1-6033.657,15464.57Zm-57.846-.059c.431-.5,2.112-.621,3.614-.8h-3.094C-6091.091,15463.891-6091.258,15464.127-6091.5,15464.512Zm20.824-.081a4.24,4.24,0,0,1,1.2-.719h-3.839C-6072.592,15463.879-6071.761,15464.108-6070.678,15464.431Zm-189.9-.145c-.338-.431.578-.484,1.557-.523a1.607,1.607,0,0,0-.163-.051h-2.857A6.33,6.33,0,0,1-6260.58,15464.286Zm54.655-.543c-.889.008-1.782.427.054.5.237-.3.846-.489,1.926-.536h-1.984C-6205.929,15463.72-6205.921,15463.731-6205.925,15463.743Zm-101.332.5a25.426,25.426,0,0,0,4.95-.528h-4.395C-6307.194,15463.875-6307.5,15464.054-6307.256,15464.24Zm353.737-.455q-2.615.041-5.232.08C-5956.317,15464.226-5954.146,15464.517-5953.52,15463.785Zm-30.3.288a.606.606,0,0,1,.125-.352l-.276-.01h-3.191A15.4,15.4,0,0,1-5983.816,15464.073Zm-217.295-.361h-1.6C-6202.683,15463.987-6201.387,15464.26-6201.111,15463.712Zm260.357,0h-6.056C-5944.461,15464.3-5942.287,15463.778-5940.754,15463.712Zm-62.876.188q-1.419,0-2.8-.016A13.366,13.366,0,0,0-6003.63,15463.9Zm13.5-.084c.811-.05,1.642-.1,2.484-.1h-4.869q-1.148.038-2.257.068A22.02,22.02,0,0,0-5990.128,15463.816Zm-54.622.067c.1-.056.188-.113.274-.172h-2.373a.3.3,0,0,0-.016.03C-6046.142,15463.815-6045.432,15463.865-6044.75,15463.884Zm-317.262-.113c.209-.016.4-.039.594-.059h-.559C-6361.985,15463.731-6362.008,15463.751-6362.012,15463.771Zm52.29-.059h-1.63A6.468,6.468,0,0,0-6309.722,15463.712Zm111.907,0h-1.626A11.878,11.878,0,0,0-6197.815,15463.712Zm538.573-.823c2.815-.151,3.58-.908,3.021-2.058h-3.929c1.444.3,2.562.715,2.469,1.538a28.125,28.125,0,0,0-3.148-.478h-.116C-5660.6,15462.3-5659.289,15462.381-5659.242,15462.889Zm24.016-1.254c-1.1-.085-1.7-.346-1.708-.8h-2.85a15.716,15.716,0,0,1-3.533.377C-5645.643,15462.765-5634.861,15462.462-5635.227,15461.635Zm-239.734.354a25.883,25.883,0,0,1,5.113-1.157h-6.8A3.454,3.454,0,0,1-5874.961,15461.988Zm193.066-.4c.423.8,7.481.253,7.986-.761h-3.673C-5678.32,15461.293-5679.6,15461.592-5681.9,15461.592Zm-28.942.288c2.9.046,4.445-.307,4.682-1.049h-9.837c-.082.342,1.459.265,3.017.19.667-.035,1.335-.065,1.883-.065C-5709.836,15460.956-5709.234,15461.13-5710.837,15461.88Zm-98.16-.039a1.737,1.737,0,0,0-.862-1.01h-5.505C-5813.279,15461.3-5810.535,15461.585-5809,15461.841Zm160.913-.078a5.025,5.025,0,0,0,2.881-.932h-4.341A1.456,1.456,0,0,1-5648.084,15461.763Zm-94.957-.069c1.759-.055,2.589-.385,2.935-.862h-3A.936.936,0,0,1-5743.041,15461.693Zm-57.846-.059c.431-.5,2.112-.625,3.619-.8h-3.1C-5800.476,15461.014-5800.643,15461.247-5800.887,15461.635Zm20.825-.085a4.233,4.233,0,0,1,1.2-.719h-3.836C-5781.977,15461-5781.146,15461.231-5780.062,15461.55Zm-135.192-.179c.237-.3.846-.489,1.929-.54h-1.988c0,.012.008.02,0,.031a2.841,2.841,0,0,0-.744.1c-.007.107-.014.213-.019.318A4.847,4.847,0,0,0-5915.255,15461.371Zm252.406-.54h-6.324C-5666.261,15461.259-5663.466,15461.771-5662.849,15460.831Zm-30.352.365a.628.628,0,0,1,.132-.365h-3.471A15.454,15.454,0,0,1-5693.2,15461.2Zm-217.295-.365h-1.6C-5912.068,15461.111-5910.771,15461.383-5910.5,15460.831Zm260.357,0h-6.056C-5653.846,15461.422-5651.672,15460.9-5650.138,15460.831Zm-49.375.105c.812-.047,1.643-.094,2.485-.105h-7.5A19.52,19.52,0,0,0-5699.513,15460.937Zm-51.615-.105h-5.408A19.894,19.894,0,0,0-5751.128,15460.831Zm-156.071,0h-1.627A11.292,11.292,0,0,0-5907.2,15460.831Zm277.882-3.61a.9.9,0,0,0,.2-.073,15.628,15.628,0,0,0-.2-2.69Zm0-7.093c.373-.393.7-.908.609-2.679-.194.287-.4.008-.609-.641Zm3.036-14.182c.3-5.428-.908-5.8-2.092-6.231.012,1.984-.753,1.646-.943,3.017v.4c1.145,2.889.532-.57,1.467-1.852C-5627.543,15433.559-5627.023,15435.119-5626.282,15435.946Zm-3.036-5.7a1.423,1.423,0,0,1,.435-.481,4.624,4.624,0,0,1-.435-.318Zm0-7.594v4.608a26.932,26.932,0,0,0,.353-5.532C-5629.15,15421.83-5629.255,15422.184-5629.317,15422.653Zm0-5.105a16.9,16.9,0,0,0,.291-2.248c.027-.928-.1-1.354-.291-1.541Zm0-25.417v15.475c.082.419.128.835.225,1.262a1.483,1.483,0,0,1-.225.462v2.931a1.773,1.773,0,0,0,.769-.229c.936-2.893-.668-11.942,1.375-14.617-2.264-3.482-.47-7.081-1.122-11.153C-5628.7,15388.338-5629.042,15390.271-5629.317,15392.131Zm0-50.847c.023,0,.042.012.062.012a8.763,8.763,0,0,0-.062-2.174Zm0-20.824v1.743a9.076,9.076,0,0,1,.87-1.906c-.085-.711-.187-.99-.3-.99C-5628.906,15319.307-5629.088,15319.827-5629.317,15320.46Zm0-32.246a.392.392,0,0,0,.039-.016c-.008-.275-.023-.5-.039-.684Zm-304.514-41.952c-.109.108-.07.311,0,.552q1.764.785,3.409,1.724a.868.868,0,0,1,.594-.928,10,10,0,0,0-3.665-1.444A.465.465,0,0,0-5933.832,15246.262Zm290.615-2.881c-.1.113-.07.314,0,.556q1.759.785,3.4,1.724a.868.868,0,0,1,.594-.928,10.021,10.021,0,0,0-3.665-1.444A.492.492,0,0,0-5643.216,15243.381Zm-567.259,223.456a2.687,2.687,0,0,1-.307-.016c.113,0,.225.012.342.016Zm-323.491-1.852h0Zm908.678-133.736a.73.73,0,0,1-.128.02C-5625.373,15331.261-5625.331,15331.253-5625.288,15331.249Z" transform="translate(7185.21 -15183.92)" fill="#445aa5" stroke="rgba(0,0,0,0)" stroke-miterlimit="10" stroke-width="1"/>
    </g>
    <g id="Grupo_3448" data-name="Grupo 3448" transform="translate(387.061 -1529.783) rotate(19)">
      <path id="Trazado_3930" data-name="Trazado 3930" d="M2347.119,1145.74c-.417-.4-.867-.762-1.3-1.148-.439.269-.879.535-1.311.823Z" transform="translate(221.339 11.735)" fill="#d9ddf9"/>
      <g transform="matrix(0.95, -0.33, 0.33, 0.95, 1580.1, 1228.75)" filter="url(#Trazado_3931)">
        <path id="Trazado_3931-2" data-name="Trazado 3931" d="M2461.038,1297.567c.3-2.041.834-3.4,1.02-5.784-.84-1.081-1.923-1.337-1.848-5.5,1.5,1.184.135-8.575,1.306-12.632-1.313,1.1-.107-5.074-.068-6.813-1.649-1.154.856-3.312-1.118-4.43.01-2.83.635-3.583-.055-5.679.485.308.7,1.548,1.441.994.015-2.847.648-3.624-.4-4.507.3,4.405-1.521,1.081-1.789.178a9.114,9.114,0,0,0,.3-5.713c.529,1.219.886,1.136,1.063-1.244a7.186,7.186,0,0,0-2.474,3.081v-8.293c.553.7.582,3.171,1.031,4.221,1.13.425.915-3.149,1.757-3.585-.1,1.4.127,7.009.392,3.371-.211-1.629.362-5.906-.416-5.642-.133,1.444-.436,2.366-1.051,2.381a23.807,23.807,0,0,1,.639-8.019c.074-3.56-1.008,2.988-1.087-1.029q.507-1.8,1.04-3.513c.7-.413.727,1.46,1.1,2.164.522-4.5-.951-2.261-1.117-4.435.667-.915.215-3.41,1.062-1.243.012-5.12.072-10.413-1.534-10.074-.043,1.706.172,4.177-.313,4.575-.13-3.193-.529-3.076-1.14-6.7,1.966,1.777,1.075-2.376,2.484-2.52-1.383.365-.91-5.533-1.512-7.806l1.073-.105c-.934-4.456-.047-3.315-.1-10.218-1.174,1.417-1.63-3.354-2.3-3.25v-7.725c.014-.054.026-.105.042-.16-.12,3.149,1.344.928,1.466,3.259-.2,4.274-1.2-.718-1.4,3.55q1.167-.427,1.11,3.3c2.4.783.4-11.9.557-15.966.068-1.739.793.061-.38-2.233,1.062-4.935.289-2.787-.415-5.642.807-1.579-.154-4.952,1.008-6.919-.124-2.247-.881,1.422-1.072-1.695l-.011-.176-.017-.046c-.046-.13-.106-.294-.171-.475a5.437,5.437,0,0,0,.217-1.238,7.13,7.13,0,0,0-.227-1.624c-1.506-1.062-1.316-.641-.946,0,.4.652.824,1.733.24,1.877a8.609,8.609,0,0,0-.747-1.969,3.54,3.54,0,0,0-.678-1c-.4-.409-.616-.4-.811-.286-.07.042-.137.092-.206.142a14.873,14.873,0,0,0-1.649-1.691c.108-.14.174-.395.051-1.04a13.68,13.68,0,0,0,1.433,1.675,2.205,2.205,0,0,0,1.344.62c-.974-1.337-1.215-2.237-3.366-3.634.6,1.244-1.883-.6-4.077-1.445a5.594,5.594,0,0,0-2.349-.635c-.136.046-.123.166.049.384q-.768-.305-1.551-.577c.364-.164,1.994.02,1.448-.63a17.493,17.493,0,0,0-5.725-.615c-.345-.083-.689-.166-1.031-.242-8.252-1.821-16.922-2.791-25.1-.676a30.074,30.074,0,0,0-8.191,3.488c-6.654-6.846-15.463-11.557-24.576-14.818,1.268.39,2.534.8,3.793,1.24a63.312,63.312,0,0,1,19.746,10.678c-.18.109-.369.2-.548.316l1.052.132c.23.2.456.4.68.6q.358-.221.719-.429l1.3.163c-.191-.193-.394-.371-.589-.559a29.091,29.091,0,0,1,8.923-3.075,28.257,28.257,0,0,1,7.17-.238,65.826,65.826,0,0,1,7.052,1.055c4.346.842,7.767,1.581,8.99.215a55.105,55.105,0,0,0-16.926-2.872,38.684,38.684,0,0,0-9.338,1.124A31.409,31.409,0,0,0,2407.7,1146a58.363,58.363,0,0,0-15.014-9.653,94.8,94.8,0,0,0-18.511-6.045c-18.005-4.03-36.482-3.546-52.966,2.253a70.98,70.98,0,0,0-38.3,31.41,53,53,0,0,0-13.621-5.464,32.856,32.856,0,0,0-15.533.024,24.207,24.207,0,0,0-7.194,3.208,31.342,31.342,0,0,0-5.862,5.19c-3.39,3.725-5.957,7.978-8.757,12.095a203,203,0,0,0-23.906-2.911,123.257,123.257,0,0,0-12.408-.115q-2.819.12-5.64.374-4.059.264-8.073.847a38.055,38.055,0,0,0-6.451.6,29.8,29.8,0,0,0-4.314,1.09,16.492,16.492,0,0,0-3.462,1.628,15.115,15.115,0,0,0-4.079.871,29.542,29.542,0,0,0-4.453,1.873l-2.243,1.085c-.723.4-1.442.792-2.152,1.159-1.424.727-2.812,1.352-4.07,1.875,1.61,1.1-2.936,1.762-1.937,1.215a23.246,23.246,0,0,0-2.753,1.745q-1.374.971-2.782,2.051c-1.786,1.56-3.709,3.136-5.5,5.006-1.085,1.05-2.162,2.161-3.24,3.3a146.9,146.9,0,0,0-16.169,17.662c-.26.288-.517.569-.777.861a108.539,108.539,0,0,0-8.721,11.149,96.478,96.478,0,0,0-5.534,9.869c-1.716,2.833-3.363,5.74-4.866,8.71a74.749,74.749,0,0,0-4.3,8.2c-3.506-.441-6.151-.275-6.041.439-.257,0-.512-.01-.769,0a49.11,49.11,0,0,0-7.578.108c-2.374.328-3.858.65-2.977.885a40.884,40.884,0,0,0-5.263.962c-1.752.435-3.481,1.035-5.216,1.621a62.352,62.352,0,0,0-9.864,4.843,122.293,122.293,0,0,0-16.5,12.4c.33.928-.706,1.844-2.005,3-.321.293-.665.594-.99.927a13.625,13.625,0,0,0-.891,1.1,6.636,6.636,0,0,0-1.192,2.574,5.358,5.358,0,0,1,1.308-1.165c-.314.425-.621.855-.924,1.287a24.784,24.784,0,0,0-3.629,4.6,22.736,22.736,0,0,0-2.02,4.144,12.512,12.512,0,0,0-.508,2.1q-.458,1.026-.878,2.072a10.879,10.879,0,0,0-1.439,2c-.049,0-.08,0-.14.011l.077.091c-.231.409-.45.833-.656,1.273l-.549,1.17h0l-.025.051,1.513-.1c.213-.014.43-.041.645-.062l2.04-.1c.178-.01.369-.015.55-.024l.316,1.978a21.116,21.116,0,0,1,2.143-.917l-.265-1.13a49.259,49.259,0,0,1,5.472.173,1.4,1.4,0,0,0,.927-.766h1.407a.368.368,0,0,0-.1.385c18.723.141,47.656,1.386,57.881.143,8.486,2.5,21.97,0,30.71.77-4.216-.367,10.854-.365,4.607.672,9.389-.712,20.371-1.042,30.678.411-.125-.616.779-.927,2.156-1.1.1.493-.454.792-1.026,1.086,5,.11,4.891-.756,5.563-1.133,12.614.612,19.9,1.247,32.975.748-.889-.069-2.236.014-2.3-.334,18.428,1.333,34.062-.269,52.247.556-.626.007-1.314-.279-.035-.36-.371.946,21.01-1.285,21.681,1.222,4.142-.571,1.875-.791,4.567.312.407-1.27,4.779-1.364,7.759-1.873-.026.626.363,1.114,1.275,1.425,7.189-.968,24.21-1.532,30.676.411,3.656-1.233,7.908-.53,12.362-1.2-1.4,1.007,4.606,1.187,1.2.708.133-.426-.295-1.017,1.027-1.089,8.292,1.047,20.389,1.253,37.511.7-2.67,1.525,4.27-.248,4.643,1.032,2.993-.846,5.659-.752,5.49-1.85,3.1,1.883,13.109.14,14.912,1.645,3.118.231,2.213-.733,4.464-.762,1.009,1.4,3.15.11,6.8-.068-.018.46-1.4.512-1.028,1.087,2.825.027,3.454-.6,5.6-.774.041.36-.875.438-1.064.73,3.16-.451,4.809-.12,7.971.277,2.93-1.481,9.983-1.411,15.8-.873.612-.646-3.473-1.458-.18-1.794,3.509,1.111,4.353,1.079,5.92,2.452,5.032.122,5.584-.547,9.066-.089,2.455-.542-1.514-.859,1.023-1.089,1.574.584,5.1.51,6.91,1.01a.679.679,0,0,1,.481-.514l3.481-1.387-.6-1.5C2460.552,1300.824,2462.561,1294.4,2461.038,1297.567Zm-1.9-47.54c.461,2.878-.8,5.419.793,7.879-1.441,1.887-.311,8.279-.971,10.32a1.242,1.242,0,0,1-.541.164v-2.071a1.072,1.072,0,0,0,.159-.326c-.067-.3-.1-.593-.159-.891v-10.928C2458.608,1252.861,2458.847,1251.495,2459.133,1250.027Zm-.719,25.7c.044-.332.117-.581.25-.653a19.267,19.267,0,0,1-.25,3.906Zm0-3.6v-2.677c.137.133.223.433.206,1.09A12.26,12.26,0,0,1,2458.415,1272.123Zm0,8.4a3.679,3.679,0,0,0,.306.226,1.047,1.047,0,0,0-.306.337Zm.044-62.251a.291.291,0,0,1-.044-.008v-1.529A6.218,6.218,0,0,1,2458.459,1218.275Zm.569-14.83a6.323,6.323,0,0,0-.614,1.346v-1.23C2458.693,1202.787,2458.88,1202.255,2459.028,1203.445Zm-.586-22.668c-.01,0-.017.01-.027.012v-.494C2458.425,1180.427,2458.435,1180.583,2458.442,1180.777Zm-9.827-31.647c.176-.173.911-.072,2.822.952a.615.615,0,0,0-.419.656,26.868,26.868,0,0,0-2.4-1.217C2448.565,1149.35,2448.54,1149.208,2448.615,1149.13Zm-301.88,153.56h.393c-.136.015-.27.031-.419.042C2146.711,1302.718,2146.729,1302.7,2146.735,1302.69Zm35.7,0h1.149A4.655,4.655,0,0,1,2182.43,1302.69Zm3.278,0h3.1a17.884,17.884,0,0,1-3.491.374C2185.148,1302.932,2185.362,1302.806,2185.708,1302.69Zm6.483,1.024c-3.23-.051-1.444-.606-1.351-1.024h6.583a1.421,1.421,0,0,1,.366.25C2196.27,1304.5,2191.507,1302.18,2192.192,1303.714Zm26.036-.617a4.435,4.435,0,0,0-1.033-.406h2.017c.036.012.08.023.113.035C2218.636,1302.753,2217.989,1302.793,2218.228,1303.1Zm40.806-.406c-1.322-.047-2.009.1-2.232.379-1.294-.055-.665-.352-.037-.358,0-.008,0-.014,0-.021h3.4C2259.963,1303.079,2259.048,1302.886,2259.034,1302.69Zm2.3,0h1.146A8.152,8.152,0,0,1,2261.335,1302.69Zm23.877.816a2.423,2.423,0,0,0-1.187-.816h4.792A18.16,18.16,0,0,0,2285.213,1303.506Zm42.022-.816h3.88a1.23,1.23,0,0,1,.61.71C2330.638,1303.22,2328.7,1303.024,2327.235,1302.69Zm10.153.654c.2-.326.338-.514.42-.654h2.184C2338.847,1302.825,2337.559,1302.918,2337.388,1303.344Zm12.875-.654h2.706a2.946,2.946,0,0,0-.843.507C2351.362,1302.97,2350.775,1302.81,2350.263,1302.69Zm18.452,0h3.813A14.181,14.181,0,0,1,2368.714,1302.69Zm9.514.608a.664.664,0,0,0-.048-.608h2.117C2380.055,1303.025,2379.469,1303.258,2378.229,1303.3Zm22.706.13c2.767-1.293-3.771-.159-3.634-.738h6.935C2404.068,1303.213,2402.98,1303.463,2400.935,1303.428Zm4.446-.738h8.084a.44.44,0,0,0-.093.257C2410.517,1302.285,2407.7,1303.167,2405.381,1302.69Zm11.6,2.373c.066.349,1.414.264,2.3.337-3.929,1.653-5.511-2.285.99-1.446C2420.222,1304.634,2416.555,1304.241,2416.985,1305.063Zm4.356-1.836a5.977,5.977,0,0,0,3.042-.537h2.59C2426.616,1303.405,2421.64,1303.789,2421.341,1303.227Zm8.971-.537h4.46C2434.335,1303.353,2432.366,1302.99,2430.312,1302.69Zm7,1.453c-.034-.36-.959-.419-1.2-.706a17.285,17.285,0,0,1,2.3.336c.067-.58-.722-.871-1.741-1.084h2.769C2439.839,1303.5,2439.3,1304.036,2437.316,1304.143Zm2.147-1.453h4.27A13.059,13.059,0,0,1,2439.464,1302.69Zm4.688,0h3.061a3.548,3.548,0,0,1-2.03.656A1.026,1.026,0,0,0,2444.152,1302.69Zm4.391.264a11.1,11.1,0,0,0,2.492-.264h2.007c.007.323.428.5,1.2.566C2454.506,1303.839,2446.9,1304.055,2448.543,1302.954Zm9.872-2.814v-1.954a11.221,11.221,0,0,1,.14,1.9A.663.663,0,0,1,2458.415,1300.14Zm0-5.009v-2.345c.143.459.291.655.43.453C2458.909,1294.488,2458.676,1294.853,2458.415,1295.131Zm0-12.005v-.281c.134-.968.673-.729.665-2.129.835.307,1.686.565,1.476,4.4a6.43,6.43,0,0,1-1.108-3.3C2458.788,1282.723,2459.221,1285.165,2458.415,1283.126Z" transform="translate(-1080.97 -1693.7) rotate(19)" fill="#d9ddf9"/>
      </g>
    </g>
    <path id="Trazado_6752" data-name="Trazado 6752" d="M1400.815,1415.823a24.159,24.159,0,0,0,.475-3.739c.94-.082,1.863,1.428,2.816-1.374.657-2.083.332-2.632.76-4.369,1.41.434.641,3.046-.23,5.913-.416,1.452-.9,2.909-1.24,4.254a7.729,7.729,0,0,0-.158,3.525c.369-1.476.725-2.862,1.036-3.966.319-1.081.556-2.1.764-3.021.382-1.841.794-3.232,1.38-3.809-.547,2.221-.475,2.659-.145,2.422.277-1,.6-1.991.9-2.983a14.73,14.73,0,0,1,.056-3.751c.287.466.481,1.011.677,1.381q.814-2.427,1.74-4.82a4.756,4.756,0,0,0-.55-.7c-.49-.378-1.291-.056-3.5,3.483,1.835-6.957,2.265-.856,4.338-7.672-.721-.218-1.837,2.242-2.449,1.276.277-1.335,2.323-8.449,3.8-8.038-1.218,4.818.184,1.879,2.41-2.674,2.21-4.562,5.525-10.721,6.682-12.891,1.541.961,5.295-4.417,9.623-9.2,4.24-4.844,8.892-9.124,9.324-7.4,3.584-4.172,3.768-4.278,4.209-5.729.812.222,2.273-1.3,3.732-2.819,3.048-.832-2.649,4.45.493,2.338.268-.2.529-.41.8-.61-.929-1.871,7.414-5.131,7.093-6.035a65.925,65.925,0,0,1-6.467,2.951c1.429-1.093,2.61-1.913,3.643-2.575,1.056-.637,1.984-1.088,2.859-1.518,1.747-.868,3.336-1.567,5.794-2.88.208-.805,2.856-3.035,3.966-2.692-2.623,1.494-3.964,2.911-3.455,3.643-6.376,4.248-8.613,4.783-11.29,7.552a125.754,125.754,0,0,1,13.377-8.284c-.1-.249.356-.856,1.828-1.938,2.564-.626,4.17-2.188,6.8-4.025.653-.469,1.362-.963,2.158-1.473.81-.479,1.715-.962,2.729-1.454a34.016,34.016,0,0,1,3.411-1.447c1.287-.431,2.713-.847,4.293-1.236,1.772,1.968,4.588-.288,6.986-2.074,2.418.376.01,1.821-1.728,2.857.835-.246,1.665-.507,2.5-.739,1.988-1.135,4.188-2.226,3.956-3.286,8.295-1.072,11.261-2.85,16.848-2.43-1.883.289-4.766.656-4.8,1.184,4.513-1.109,5.716-.734,6.649-.479a6.2,6.2,0,0,0,2.057.389c1.091-.111,2.188-.183,3.283-.27-.128-.458-1.669-.513-3.03-.619-1.416-.068-2.623-.187-1.734-1.011,3.919-.633,5.19-.3,6.031.037a6.615,6.615,0,0,0,3.612.851c-.833-.715,1.228-1.555,4.057-2.042,2.821-.376,6.391-.423,8.338.479-4.576-.092-8.249.174-9.92.961,1.481-.028,2.869.012,2.368.462,1.925-.338,3.962-.642,6.053-.9,1.438-.118,2.911-.185,4.38-.26a44.154,44.154,0,0,1,5.784-13.017l.932-1.369c-.756,2.993,6.471-8.422,0,0a4.374,4.374,0,0,1,.166-.575c1.182-3.365,4.612-8.746,9.125-13.946,4.469-5.238,9.881-10.294,13.754-14.239,2.635-.068-5.063,5.714-3.515,6.305a18.587,18.587,0,0,1,6.415-5.939,46.726,46.726,0,0,0-3.442,3.811,129.369,129.369,0,0,1,17.328-13.793,56.309,56.309,0,0,0-6.629,3.814,53.159,53.159,0,0,0-6.918,5.831c.151-1.939,4.584-5.844,8.841-8.35a26.094,26.094,0,0,1,5.365-2.664c.95-.31,1.455-.308,1.265.122q1.779-1.14,3.6-2.229c-.458-.676-1.627-.7-3.17-.331,5.95-4.245,3.748-.879,5.033-.758q2.376-1.368,4.816-2.641c3.477-2.408,7.9-5.614,11.984-5.664-1.271.565-2.842,1.161-4.093,1.74-.45.225-.838.438-1.18.64.481-.218.952-.459,1.436-.671,1.552-.685,3.128-1.314,4.7-1.947,1.972-1.149,2.194-1.478,3.069-1.2.372-.14.746-.269,1.118-.406a14.858,14.858,0,0,1,4.182-2.413,59.7,59.7,0,0,1,9.11-2.819,58.418,58.418,0,0,1,8.544-1.417c.7-.068,1.289-.1,1.767-.1,1.615-.337,3.243-.63,4.871-.921.535-.527.849-1.056,3.2-1.468a6.961,6.961,0,0,0,3.209.434c1.36-.2,2.719-.39,4.083-.556.157-.608-.212-1.276,2.319-1.611,9.845-.011,18.209-.124,26.6-.439a.586.586,0,0,0,.253.65q3.249.071,6.495.232c.267.005.56.026.863.052q4.544.251,9.077.685c.02,0,.04,0,.06,0l0,.005q2.929.283,5.847.64c1.218-.023,2.578.005,3.881.012a.646.646,0,0,0,.121.488q3.35.468,6.683,1.027c.606-.565,1.226-1.117,1.84-1.675a33.936,33.936,0,0,1,4.843-4.771.238.238,0,0,0,.218.3q1.975-1.684,4-3.323a3.986,3.986,0,0,1-.673.125c4.863-3.434,6.427-5.19,4.459-5.521,2.818-2.017,6.859-5.165,7.888-4.932-2.394,2.436,4.293-3.037,6.322-2.629,4.677-2.986,9.495-5.8,14.461-8.392a12.7,12.7,0,0,0,1.7-1.48.624.624,0,0,0,.3.471q6.389-3.24,13.076-6.012c-.145-.139-.963-.129-2.845.1,8.728-3.168,14.729-5.087,20.064-6.909,2.679-.884,5.164-1.816,7.832-2.608,1.329-.423,2.685-.856,4.1-1.305s2.938-.811,4.544-1.245c-.109.688-.15,1.339.475,1.714,1.453-.282,2.9-.575,4.366-.823.586-1.06,3.83-1.928,7.176-2.77.93.858,2.657,1.159,4.823,1.182q3.923-.395,7.861-.619c4.006-.532,8.257-1.219,11.643-1.832.422.647,2.643.411,4.877.167,1.527,1.557,4.98,1.6,8.724,1.667a31.934,31.934,0,0,1,5.54.472,13.61,13.61,0,0,1,2.774.8c1.893.261,3.772.577,5.651.9a27.493,27.493,0,0,1,4.534.347c2.59.431,6.007.973,13.355,2.556-.8.531,1.081,1.4,3.208,2.3,1.429.465,2.867.912,4.279,1.419-.177-.6.15-.53,1.9-1.086-2.552.143-11.653-3.84-4.259-2.066,2.893,1.248,6.029,2.707,9.344,4.14a71.152,71.152,0,0,1,9.736-8.329c-3.123,2.59-4.815,4.677-5.323,6.122,1.8-1.75,3.713-3.41,5.675-5.022l.37-.424c1.931-2.254,2.917-3.978.117-3.417,3.4-1.518,10.069-5.87,16.955-9.171,3.416-1.682,6.832-3.152,9.611-4.252,2.774-1.116,4.94-1.783,5.75-2.13,12.869-1.7,21.521-2.38,29.125-2.66a59.611,59.611,0,0,1,13.385.84c3.445.39,6.867.941,10.243,1.656a29.8,29.8,0,0,1,7.409.709c1.138.244,2.293.521,3.416.821,1.1.35,2.178.723,3.176,1.1a20.192,20.192,0,0,1,4.667,2.364c.412-.42,1.331-.448,2.539-.124a25.483,25.483,0,0,1,2.823,1.036c3.653-2.8,8.205-5.824,10.1-8.427,4.94-1.843,9.158-4.649,13.359-7.081a64.289,64.289,0,0,1,6.263-3.188,21.779,21.779,0,0,1,6.328-1.529c-1.143-.222-1.081-.682-.3-1.286a23.8,23.8,0,0,1,4.069-2c3.465-1.5,7.909-2.822,9.041-3.877.525.485.018,1.571,2.727.795-1.527-.573,3.7-2.336,8.538-3.133,4.32-.795,8.219-.873,6.459.256a35.537,35.537,0,0,1,4.176-1.238c2.119-.509,4.095-1.018,4.21-1.541-1.84.277-4.649.988-4.8.5,1.441-.342,2.8-.687,2.3-1.035,4.39-1.682,3.8-1.206,3.6-.669s0,1.088,6.019-.164c-.75-1.736.677-.978,11.87-4.458,1.08.886-.388,1.543-2.271,2.158s-4.176,1.3-4.8,2.029c2.392-.364,2.855-.03,4.792-.2-4.134-.464,3.632-3.255,9.578-4.3,3.279.169,4.82.934,7.213,1.464a39.9,39.9,0,0,0-7.005,1.62c1.416-.153,2.83-.314,4.249-.444a87.885,87.885,0,0,1,15.546-2.493c4.047-.354,8.243-.492,11.975-.49a80.948,80.948,0,0,1,9.183.565,12.3,12.3,0,0,0-5.009.949c4.871-.685,13.874-.052,19.517-.147.511,1.9-5.978-.378-9.207.636q7,.288,13.979.859c-.05-.24.446-.4,2.319-.359a8.635,8.635,0,0,0,2.018.748q3.272.313,6.536.7c-2.017-.72-6.4-1.6-1.2-1.185a18.465,18.465,0,0,0,4.52,1.462c.356.082.709.157,1.06.228.841.108,1.677.242,2.518.356a1.848,1.848,0,0,0,1.307-.27c-2.877-.511-5.6-.955-4.451-1.7.711.778,4.881,1.2,8.259,1.266,3.372.1,5.936-.036,3.354-.579,7.927,1.349,8.2,3.127,11.993,3.84,5.372,1.035,6.2.206,12.183,1.632l5.148,1.489c3.131.854,7.144,2.212,10.847,3.357.052-1.728,12.064.755,11.946,2.681-1.82-.492-4.483-1.489-4.82-1.035,11.494,3.007,10.663,4.743,16.137,7.266l.955.356c-.012-.879-3.7-2.831-6.726-4.529-3.126-1.7-5.576-3.03-2.422-2.679-.747,1.67,8.107,1.7,6.491,2.885-6.1-1.8,6.893,3.265,5.8,3.915a40.909,40.909,0,0,1,6.2,1.288c1.887.558,3.956,1.273,6.1,2.061a80.341,80.341,0,0,1,20.08-2.981,66.706,66.706,0,0,1,18.212,1.935c-3.143-.854-3.794-1.334-2.9-1.8a9.458,9.458,0,0,1,2.35-.612c1.075-.15,2.4-.282,3.847-.418-1.618.666-2.1.989-1.408,1.3a11.111,11.111,0,0,0,1.939.5c.94.226,2.182.526,3.744.9a6.3,6.3,0,0,1,3.656-.3,15.833,15.833,0,0,1,4.292,1.218c2.677,1.072,4.449,2.582,3.457,2.718,2.835-1,9.889,1.072,16.781,4.646l1.265.655,0,1.285c-.024,7.222-.24,15.086,1.245,19.261-2.612,3.206-1.473,13-.151,16.99-.968,12.874-2.434,34.91.742,51.1-1.95,2.411-.4-6.928-2.34-4.52.293,4.372,1.753,4.372.519,8.563l1.782.2c.937,18.979,1.067,36.026,1.408,42.671-2.544,4.733-.475,13.784-3.117,16.662,1.408,12.97,1.176,50.2.085,57.4,2.285,15.079,1.238,6.907-.2,23.358,3.116-2.015-.085,10.292,2.313,6.635l-.014,1.757-.036,4.28-4.792-.03-7.682-.049c-2.167-.994,7.508-1.7.322-2.09.384.987-2.911,1.13-2.746,2.069-10.566.007-13.287-.762-19.544.915-6.681.337-4.693-1.072-9.5-1.114-.752.667-26.85,1.646-36.524.793,7.667-.926-5.746-1.806-6.691-2.659-1.1.738-3.1.859-.349,1.565-6.684.331-4.629-1.074-9.431-1.112-1.43,2.862-4.368-.052-12.087-.084-.443,1.9-12.411.558-2.927,2.066-8.324-.973-12.912,1.659-14.65.415,2.891.185,8.726-1.442,2.82-1.541-6.32,1.272-12.805,2.512-27.186,1.888-.244-2.272-10.8.028-6.517-2.644-14.675.385-31.331,1.586-41.233.223,5.229,2.087-3.418-.6-2.937,1.527-12.12-.065-13.158-1.126-29.026-.214-3.244-.335.36-1.975-4.075-2.083-7.771,3.4-11.827-.064-16.892-.12-7.11-.077-12.75,3.288-22.565,1.884,1.264-2.266-13.036.661-13.846-1.632-4.59,2-17.371.5-14.48-.1-6.162,1.241-12.5.31-17.355.886,4.168.007,6.008.434,6.776,1.063-12.1-1.632-50.7,1.975-57.471-1.433-6.075,1.736-9.077.089-14.205-.6-33.2,1.114-63.766.024-89.794.329,5.109,1-4.461.094-4.5-.511a26.625,26.625,0,0,1-5.784,1.393c-13.8-2.139-34.081.368-44.795-1.742-16.017,2.242-47.9-.5-55.717.08-.782.054,1.8.921,1.667.922-14.518.1-24.622-.985-37.768-1.167-27.574-.366-60.016,1.5-90.677,1.112,1.374-.912-.592-1.346-5.927-1.3-24.49-.568-52.519,1.518-71.609-.83-14.141.185-28.841-.017-43.636-.354H1404c.113-.656.264-1.306.388-1.961-.343.7-.636,1.292-.844,1.717-.465.863-.854,1.47-1.417,1.442a28.337,28.337,0,0,1,.194-5.355c.107-.852.229-1.618.255-1.985.03-.44-.01-.757-.155-.893a5.081,5.081,0,0,0-.637,1.076,6.994,6.994,0,0,0-.4,1.593,13.756,13.756,0,0,0-.042,3.225c.168,1.82.335,2.817-.641,3.046A23.985,23.985,0,0,1,1400.815,1415.823Zm11.013-23.189c-.006,2.015.438,1.562.907,1.754q.965-2.045,2.012-4.058C1414.123,1390.125,1413.345,1390,1411.828,1392.634Zm153.66-105.7c-2.71,2.934-3.74,4.48-4.781,5.73-1.057,1.241-1.976,2.28-4.1,4.48,2.911-1.492,1.747-.3-.02,1.36-1.737,1.684-3.946,3.987-3.453,4.379.206.215.493.2.838.045a112.261,112.261,0,0,1,10-12.79A22.071,22.071,0,0,1,1565.488,1286.939Zm55.355-33.3c-.16.066-.271.127-.4.19.182-.061.359-.135.54-.2Zm51.886-9.328a.488.488,0,0,1,.059.2c1.412-.052,2.822-.1,4.236-.125A23.031,23.031,0,0,0,1672.728,1244.306Zm380.693-75.687c-1.337.729-3.8,2.343-5.9,3.8-2.119,1.435-3.953,2.622-4.307,2.233-2.259,1.436-.855,1.128.267.471.2.5-2.275,1.813-3.744,2.873.432.27,1.679-.3,3.069-1.13.214-.129.42-.261.632-.389.368-.234.737-.473,1.1-.72,1.964-1.349,3.681-2.784,3.038-2.932,2.992-1.391.6.732-1.543,2.086a.5.5,0,0,0,.075.014c.65-.371,1.309-.732,1.964-1.1,0-.014.014-.035.008-.045.7-.417,1.295-.725,1.833-.982.354-.19.7-.4,1.052-.586.412-.22.838-.417,1.253-.633C2051.609,1170.838,2054.308,1169.3,2053.421,1168.619Zm313.326,131.572v2.637c.826-.514,1.687-.9,1.756-4.3C2367.648,1298.068,2367.321,1299.6,2366.747,1300.191Zm0,40.977v3.929a9.27,9.27,0,0,1,.77-2.04C2367.226,1342.434,2366.973,1341.8,2366.747,1341.168Zm.525,29.494a9.24,9.24,0,0,1-.525-1.918v2.988C2366.961,1372.12,2367.171,1371.937,2367.272,1370.662Zm-71.049,51.131H2294.5c0,.031.008.061-.008.1C2295.057,1421.858,2295.636,1421.825,2296.223,1421.794Zm-45.251.319c2.564-.033,5.815-.157,9.38-.319h-21.43C2243.131,1422.008,2247.167,1422.162,2250.972,1422.113Zm-94.329.394c7.685.016,16.387-.331,25.408-.713H2131.97C2139.825,1422.17,2148.048,1422.489,2156.644,1422.507Zm-142.341-.45c.8-.087,1.717-.176,2.687-.263h-17.059C2004.721,1421.881,2009.491,1421.956,2014.3,1422.057Z" transform="translate(673.611 -936.589) rotate(1)" fill="#d9ddf9"/>
    <path id="Trazado_6751" data-name="Trazado 6751" d="M2203.078,1399.2a25.608,25.608,0,0,1-.393-3.508c-.777-.077-1.539,1.339-2.326-1.289-.543-1.955-.274-2.47-.628-4.1-1.165.407-.53,2.858.19,5.548.343,1.363.746,2.73,1.024,3.991a8.211,8.211,0,0,1,.131,3.307c-.3-1.385-.6-2.686-.855-3.721-.263-1.014-.459-1.974-.631-2.834a8.694,8.694,0,0,0-1.14-3.574c.452,2.084.393,2.494.12,2.272-.229-.939-.494-1.868-.748-2.8a15.683,15.683,0,0,0-.046-3.52c-.237.437-.4.949-.56,1.3q-.672-2.277-1.437-4.522a4.43,4.43,0,0,1,.455-.653c.4-.355,1.066-.052,2.894,3.268-1.516-6.528-1.871-.8-3.583-7.2.6-.2,1.518,2.1,2.023,1.2-.229-1.253-1.918-7.928-3.137-7.542,1.006,4.521-.152,1.763-1.991-2.509s-4.563-10.059-5.52-12.1c-1.272.9-4.374-4.145-7.949-8.634-3.5-4.545-7.345-8.561-7.7-6.946-2.96-3.914-3.112-4.014-3.477-5.375-.671.208-1.878-1.215-3.083-2.645-2.518-.78,2.188,4.176-.407,2.193-.221-.19-.437-.384-.659-.572.767-1.755-6.124-4.814-5.859-5.662a51.543,51.543,0,0,0,5.342,2.769c-1.181-1.026-2.156-1.794-3.009-2.416-.872-.6-1.639-1.021-2.362-1.425-1.443-.815-2.756-1.47-4.786-2.7-.172-.756-2.359-2.848-3.276-2.525,2.167,1.4,3.274,2.731,2.854,3.418,5.267,3.986,7.115,4.488,9.326,7.085a102.708,102.708,0,0,0-11.05-7.772c.083-.234-.294-.8-1.51-1.819-2.118-.587-3.445-2.053-5.62-3.776-.54-.44-1.125-.9-1.783-1.382-.669-.45-1.417-.9-2.254-1.364a26.408,26.408,0,0,0-2.818-1.358c-1.063-.4-2.241-.795-3.546-1.16-1.464,1.847-3.79-.27-5.771-1.946-2,.353-.008,1.709,1.428,2.681-.69-.231-1.375-.476-2.069-.693-1.642-1.065-3.459-2.089-3.268-3.083-6.852-1.006-9.3-2.674-13.917-2.28,1.555.272,3.937.615,3.964,1.111-3.728-1.04-4.722-.689-5.492-.45a4.6,4.6,0,0,1-1.7.365c-.9-.1-1.808-.172-2.712-.254.106-.43,1.379-.481,2.5-.581,1.169-.064,2.167-.175,1.433-.949-3.237-.594-4.287-.281-4.982.034a4.97,4.97,0,0,1-2.983.8c.688-.671-1.014-1.459-3.352-1.915-2.331-.353-5.279-.4-6.887.45,3.78-.087,6.814.163,8.194.9-1.224-.026-2.37.011-1.956.433-1.59-.317-3.273-.6-5-.841-1.187-.111-2.4-.173-3.618-.244a44.371,44.371,0,0,0-4.778-12.213l-.77-1.284c.625,2.808-5.345-7.9,0,0a4.524,4.524,0,0,0-.137-.54c-.977-3.157-3.81-8.206-7.537-13.085-3.691-4.915-8.162-9.658-11.361-13.36-2.177-.064,4.182,5.362,2.9,5.916a16.315,16.315,0,0,0-5.3-5.572,42.43,42.43,0,0,1,2.843,3.575,110.407,110.407,0,0,0-14.313-12.941,39.174,39.174,0,0,1,11.191,9.05c-.125-1.819-3.787-5.483-7.3-7.835a20.6,20.6,0,0,0-4.431-2.5c-.785-.291-1.2-.289-1.045.114q-1.47-1.07-2.97-2.092c.378-.635,1.344-.658,2.619-.311-4.915-3.983-3.1-.824-4.158-.711q-1.963-1.283-3.978-2.478c-2.872-2.259-6.524-5.267-9.9-5.314,1.05.53,2.347,1.089,3.381,1.632.371.211.692.411.975.6-.4-.2-.787-.43-1.186-.63-1.282-.643-2.584-1.233-3.886-1.827-1.629-1.078-1.812-1.387-2.535-1.125-.307-.131-.616-.252-.924-.381a12.046,12.046,0,0,0-3.455-2.264,45.113,45.113,0,0,0-7.525-2.645,42.975,42.975,0,0,0-7.057-1.33,14.027,14.027,0,0,0-1.459-.093c-1.334-.316-2.679-.591-4.023-.864-.442-.494-.7-.991-2.64-1.377a5.132,5.132,0,0,1-2.651.407c-1.124-.183-2.246-.366-3.373-.522-.129-.571.175-1.2-1.916-1.511-8.132-.01-15.041-.116-21.976-.412a.588.588,0,0,1-.209.61q-2.684.066-5.365.218c-.221.005-.463.025-.713.049q-3.754.236-7.5.643c-.016,0-.033,0-.049,0l0,0q-2.419.265-4.83.6c-1.006-.021-2.13,0-3.206.011a.669.669,0,0,1-.1.458q-2.767.439-5.52.963c-.5-.53-1.012-1.048-1.52-1.572a30.136,30.136,0,0,0-4-4.477.22.22,0,0,1-.18.28q-1.632-1.58-3.3-3.117a2.935,2.935,0,0,0,.556.118c-4.017-3.222-5.309-4.869-3.683-5.18-2.327-1.892-5.666-4.846-6.516-4.627,1.977,2.285-3.546-2.849-5.222-2.466-3.864-2.8-7.843-5.44-11.945-7.874a11.028,11.028,0,0,1-1.4-1.389.6.6,0,0,1-.244.442q-5.277-3.04-10.8-5.641c.119-.131.8-.121,2.35.1-7.209-2.972-12.167-4.773-16.573-6.482-2.213-.829-4.266-1.7-6.469-2.447-1.1-.4-2.218-.8-3.387-1.225s-2.427-.761-3.754-1.168c.09.646.124,1.256-.393,1.608-1.2-.265-2.4-.54-3.606-.772-.484-.995-3.163-1.809-5.927-2.6-.769.8-2.2,1.088-3.984,1.109q-3.241-.37-6.493-.581c-3.309-.5-6.821-1.143-9.617-1.719-.348.607-2.183.386-4.028.157-1.261,1.461-4.114,1.5-7.207,1.564a23.312,23.312,0,0,0-4.576.443,10.236,10.236,0,0,0-2.292.749c-1.564.245-3.116.541-4.668.847a20.06,20.06,0,0,0-3.746.325c-2.139.4-4.962.913-11.032,2.4.661.5-.893,1.312-2.65,2.162-1.181.437-2.368.855-3.535,1.331.146-.563-.124-.5-1.568-1.019,2.108.134,9.625-3.6,3.518-1.938-2.389,1.171-4.98,2.54-7.718,3.885a61.538,61.538,0,0,0-8.042-7.815c2.579,2.43,3.978,4.388,4.4,5.744-1.49-1.642-3.067-3.2-4.687-4.712l-.306-.4c-1.595-2.115-2.409-3.732-.1-3.206-2.81-1.425-8.317-5.507-14.006-8.6-2.822-1.578-5.643-2.957-7.939-3.989s-4.081-1.673-4.75-2a218.64,218.64,0,0,0-24.058-2.5,43.474,43.474,0,0,0-11.057.788,79.713,79.713,0,0,0-8.461,1.554,21.777,21.777,0,0,0-6.12.666c-.94.229-1.894.489-2.822.77-.913.329-1.8.679-2.623,1.032a16.045,16.045,0,0,0-3.855,2.218c-.34-.394-1.1-.42-2.1-.116a19.477,19.477,0,0,0-2.332.972c-3.018-2.625-6.778-5.464-8.343-7.906-4.081-1.729-7.564-4.362-11.035-6.644a51.042,51.042,0,0,0-5.173-2.991,16.239,16.239,0,0,0-5.228-1.434c.944-.208.893-.64.245-1.207a18.833,18.833,0,0,0-3.361-1.874c-2.862-1.408-6.533-2.648-7.468-3.638-.433.455-.015,1.474-2.252.746,1.261-.538-3.055-2.192-7.053-2.939-3.569-.746-6.789-.819-5.335.241a26.77,26.77,0,0,0-3.449-1.161c-1.75-.478-3.382-.955-3.477-1.446,1.52.26,3.841.927,3.961.466-1.191-.32-2.309-.644-1.9-.971-3.626-1.578-3.135-1.132-2.97-.628s0,1.021-4.972-.154c.62-1.629-.56-.917-9.805-4.182-.892.831.32,1.448,1.876,2.025s3.449,1.215,3.965,1.9a30.849,30.849,0,0,0-3.958-.183c3.415-.435-3-3.054-7.912-4.033-2.708.159-3.981.877-5.958,1.374a29.684,29.684,0,0,1,5.787,1.519c-1.169-.144-2.337-.294-3.51-.417a64.692,64.692,0,0,0-12.841-2.339c-3.343-.332-6.809-.461-9.892-.46a58.983,58.983,0,0,0-7.586.53,9.128,9.128,0,0,1,4.138.89c-4.023-.643-11.46-.049-16.122-.138-.422,1.786,4.938-.355,7.605.6q-5.783.27-11.547.806c.041-.226-.368-.379-1.915-.337a6.632,6.632,0,0,1-1.667.7q-2.7.294-5.4.653c1.667-.676,5.286-1.5.993-1.112a14.04,14.04,0,0,1-3.734,1.372c-.294.077-.586.147-.875.214-.7.1-1.385.227-2.08.334a1.386,1.386,0,0,1-1.08-.253c2.376-.479,4.625-.9,3.677-1.595-.587.73-4.031,1.124-6.822,1.188-2.785.095-4.9-.034-2.771-.543-6.547,1.266-6.776,2.934-9.907,3.6-4.437.971-5.124.193-10.064,1.531l-4.253,1.4c-2.586.8-5.9,2.075-8.96,3.15-.042-1.621-9.966.708-9.868,2.516,1.5-.461,3.7-1.4,3.981-.971-9.495,2.821-8.808,4.45-13.33,6.817l-.789.334c.01-.824,3.052-2.656,5.556-4.249,2.583-1.593,4.606-2.843,2-2.514.617,1.567-6.7,1.592-5.362,2.707,5.039-1.688-5.693,3.063-4.789,3.673a30.292,30.292,0,0,0-5.118,1.209c-1.559.523-3.268,1.194-5.041,1.933a59.047,59.047,0,0,0-16.586-2.8,48.839,48.839,0,0,0-15.044,1.815c2.6-.8,3.134-1.251,2.394-1.691a7.1,7.1,0,0,0-1.941-.574c-.888-.141-1.984-.265-3.178-.393,1.336.625,1.734.927,1.163,1.219a8.317,8.317,0,0,1-1.6.468c-.777.213-1.8.494-3.093.845a4.627,4.627,0,0,0-3.02-.281,11.9,11.9,0,0,0-3.546,1.143c-2.211,1.006-3.675,2.422-2.856,2.55-2.342-.941-8.168,1.006-13.862,4.359l-1.045.615,0,1.206c.02,6.776.2,14.155-1.029,18.072,2.157,3.008,1.217,12.2.124,15.941.8,12.079,2.01,32.754-.613,47.946,1.611,2.262.327-6.5,1.933-4.241-.242,4.1-1.448,4.1-.428,8.034l-1.472.187c-.774,17.807-.882,33.8-1.163,40.036,2.1,4.441.393,12.933,2.574,15.633-1.163,12.169-.972,47.1-.07,53.859-1.888,14.148-1.022,6.48.167,21.915-2.574-1.891.07,9.657-1.91,6.225l.011,1.649.03,4.015,3.958-.028,6.346-.046c1.79-.932-6.2-1.6-.266-1.961-.317.926,2.4,1.06,2.268,1.942,8.728.006,10.975-.715,16.144.858,5.518.316,3.876-1.006,7.846-1.045.621.626,22.179,1.544,30.17.744-6.333-.869,4.746-1.695,5.527-2.494.911.692,2.56.806.288,1.469,5.522.311,3.824-1.008,7.79-1.043,1.181,2.686,3.608-.049,9.984-.079.366,1.78,10.252.523,2.417,1.938,6.876-.913,10.666,1.557,12.1.389-2.388.174-7.208-1.353-2.329-1.446,5.221,1.194,10.578,2.357,22.457,1.771.2-2.131,8.924.026,5.383-2.481,12.121.362,25.88,1.488,34.06.209-4.32,1.958,2.823-.564,2.426,1.433,10.011-.061,10.869-1.057,23.976-.2,2.679-.314-.3-1.853,3.366-1.955,6.419,3.188,9.769-.06,13.953-.113,5.873-.072,10.531,3.085,18.639,1.768-1.044-2.126,10.769.62,11.438-1.531,3.791,1.876,14.349.471,11.961-.1,5.09,1.165,10.329.291,14.336.831-3.443.006-4.962.407-5.6,1,9.995-1.531,41.879,1.853,47.473-1.344,5.018,1.629,7.5.083,11.734-.564,27.422,1.045,52.673.023,74.173.309-4.22.94,3.685.088,3.719-.479a19.856,19.856,0,0,0,4.778,1.307c11.4-2.007,28.152.345,37-1.634,13.23,2.1,39.57-.473,46.024.075.646.051-1.483.864-1.377.865,11.992.093,20.339-.924,31.2-1.094,22.777-.343,49.575,1.408,74.9,1.044-1.135-.855.489-1.263,4.9-1.22,20.229-.533,43.383,1.425,59.151-.779,11.681.174,23.824-.016,36.045-.332h110.859c-.093-.615-.218-1.225-.321-1.84.283.656.525,1.212.7,1.611.384.81.705,1.379,1.171,1.353a30.17,30.17,0,0,0-.16-5.024c-.088-.8-.189-1.518-.211-1.863a1.261,1.261,0,0,1,.128-.838,4.947,4.947,0,0,1,.526,1.009,7.3,7.3,0,0,1,.329,1.495,14.647,14.647,0,0,1,.035,3.026c-.139,1.708-.276,2.643.53,2.857A25.52,25.52,0,0,0,2203.078,1399.2Zm-9.1-21.757c0,1.891-.362,1.466-.75,1.646q-.8-1.919-1.662-3.808C2192.084,1375.087,2192.728,1374.966,2193.98,1377.441Zm-126.927-99.168c2.239,2.753,3.089,4.2,3.95,5.376s1.632,2.139,3.388,4.2c-2.4-1.4-1.443-.283.016,1.276,1.435,1.58,3.26,3.741,2.853,4.109-.17.2-.407.192-.692.042a104.663,104.663,0,0,0-8.258-12A22.058,22.058,0,0,0,2067.053,1278.273Zm-45.725-31.248c.132.062.224.119.333.178-.15-.057-.3-.126-.446-.183Zm-42.859-8.752a.5.5,0,0,0-.049.19c-1.166-.049-2.331-.1-3.5-.118A16.754,16.754,0,0,1,1978.469,1238.273Zm-314.463-71.013c1.1.684,3.135,2.2,4.872,3.561,1.75,1.346,3.265,2.46,3.558,2.1,1.866,1.348.707,1.058-.221.442-.163.466,1.879,1.7,3.093,2.7-.357.254-1.387-.281-2.535-1.06-.177-.121-.347-.245-.522-.365-.3-.219-.608-.443-.908-.676-1.623-1.266-3.041-2.612-2.509-2.751-2.471-1.305-.494.687,1.274,1.958a.366.366,0,0,1-.062.013c-.537-.348-1.081-.687-1.623-1.029,0-.013-.011-.033-.007-.042-.581-.391-1.07-.68-1.514-.921-.293-.178-.574-.373-.869-.549-.34-.206-.692-.391-1.035-.594C1665.5,1169.342,1663.274,1167.9,1664.006,1167.26ZM1405.19,1290.707v2.475c-.682-.483-1.394-.841-1.451-4.037C1404.445,1288.715,1404.715,1290.154,1405.19,1290.707Zm0,38.446v3.687a9.428,9.428,0,0,0-.636-1.914C1404.794,1330.341,1405,1329.748,1405.19,1329.153Zm-.434,27.673a9.6,9.6,0,0,0,.434-1.8v2.8C1405.013,1358.193,1404.839,1358.021,1404.756,1356.826Zm58.689,47.974h1.423a.28.28,0,0,0,.007.09Zm37.378.3c-2.118-.031-4.8-.147-7.748-.3h17.7C1507.3,1405,1503.967,1405.145,1500.823,1405.1Zm77.918.37c-6.348.015-13.536-.311-20.988-.669h41.369C1592.634,1405.153,1585.841,1405.452,1578.741,1405.468Zm117.578-.422c-.662-.082-1.418-.165-2.22-.247h14.091C1704.234,1404.881,1700.294,1404.952,1696.319,1405.047Z" transform="translate(80.604 -886.552)" fill="#d9ddf9"/>
  </g>
</svg>
