 <svg
        xmlns="http://www.w3.org/2000/svg"
        width="192.547"
        height="155.681"
        viewBox="0 0 192.547 155.681"
      >
        <g
          id="Grupo_6568"
          data-name="Grupo 6568"
          transform="translate(-21.477 -21.733)"
        >
          <g
            id="Grupo_3001"
            data-name="Grupo 3001"
            transform="translate(27.473 27.733)"
          >
            <path
              id="Unión_14"
              data-name="Unión 14"
              d="M22.956,96.7A18.588,18.588,0,1,1,18.58,60.044c.26,0,.521.005.775.016a71.789,71.789,0,0,1,24.531-43.1c1.109-.934,2.248-1.833,3.4-2.7a71.9,71.9,0,0,1,113.9,45.8c.255-.011.507-.016.767-.016A18.585,18.585,0,1,1,157.582,96.7a71.712,71.712,0,0,1-134.626,0Z"
              transform="translate(0.004)"
              fill="none"
              stroke="#fff"
              stroke-miterlimit="10"
              stroke-width="12"
            />
            <path
              id="Unión_12"
              data-name="Unión 12"
              d="M22.957,96.393a18.587,18.587,0,1,1-4.371-36.654c.331,0,.66.01.987.028a71.7,71.7,0,0,1,141.4,0c.327-.018.656-.028.987-.028a18.585,18.585,0,1,1-4.371,36.654,71.717,71.717,0,0,1-134.633,0Z"
              transform="translate(0 0.305)"
              fill="#e9c59b"
              stroke="#ce8869"
              stroke-miterlimit="10"
              stroke-width="1"
            />
            <g
              id="Grupo_2923"
              data-name="Grupo 2923"
              transform="translate(62.793 89.955)"
            >
              <path
                id="Trazado_2215"
                data-name="Trazado 2215"
                d="M1314.512,1060.143a27.756,27.756,0,1,1-53.22-11.053,43.31,43.31,0,0,0,50.928,0A27.6,27.6,0,0,1,1314.512,1060.143Z"
                transform="translate(-1259 -1049.09)"
                fill="#341e55"
              />
              <path
                id="Trazado_2216"
                data-name="Trazado 2216"
                d="M1313.654,1092.324a27.749,27.749,0,0,1-46.864,0,65.65,65.65,0,0,1,46.864,0Z"
                transform="translate(-1262.466 -1066.398)"
                fill="#e8291c"
              />
              <path
                id="Trazado_2217"
                data-name="Trazado 2217"
                d="M1314.218,1051.183a33.294,33.294,0,0,1-52.548,0c.245-.711.511-1.411.811-2.093a43.31,43.31,0,0,0,50.928,0C1313.708,1049.772,1313.974,1050.472,1314.218,1051.183Z"
                transform="translate(-1260.187 -1049.09)"
                fill="#fff"
              />
            </g>
            <ellipse
              id="Elipse_179"
              data-name="Elipse 179"
              cx="11.948"
              cy="10.621"
              rx="11.948"
              ry="10.621"
              transform="translate(37.172 70.664)"
              fill="#e8291c"
              opacity="0.1"
            />
            <ellipse
              id="Elipse_180"
              data-name="Elipse 180"
              cx="11.284"
              cy="10.621"
              rx="11.284"
              ry="10.621"
              transform="translate(122.136 70.664)"
              fill="#e8291c"
              opacity="0.1"
            />
            <g
              id="Grupo_2919"
              data-name="Grupo 2919"
              transform="translate(44.335 56.073)"
            >
              <path
                id="Trazado_2218"
                data-name="Trazado 2218"
                d="M1264.482,1011.992h-4.029a8.462,8.462,0,1,0-16.924,0H1239.5a12.491,12.491,0,1,1,24.982,0Z"
                transform="translate(-1239.5 -999.5)"
                fill="#1a1a1a"
              />
            </g>
            <g
              id="Grupo_2920"
              data-name="Grupo 2920"
              transform="translate(109.645 56.073)"
            >
              <path
                id="Trazado_2219"
                data-name="Trazado 2219"
                d="M1368.482,1011.992h-4.029a8.462,8.462,0,1,0-16.924,0h-4.03a12.491,12.491,0,1,1,24.982,0Z"
                transform="translate(-1343.5 -999.5)"
                fill="#1a1a1a"
              />
            </g>
            <path
              id="Trazado_2220"
              data-name="Trazado 2220"
              d="M1322.71,957.84a38.068,38.068,0,0,1-28.522-21.284,97.794,97.794,0,0,1-25.869,3.409c-24.476,0-45.993-8.666-58.344-21.761.038.683.056,1.366.056,2.054a38.034,38.034,0,0,1-29.911,37.155,71.761,71.761,0,0,1,24.887-45.454c1.1-.933,2.242-1.832,3.4-2.7a71.889,71.889,0,0,1,114.3,48.585Z"
              transform="translate(-1161.115 -894.995)"
              fill="#1a1a1a"
              stroke="#1a1a1a"
              stroke-width="1"
            />
            <g
              id="Grupo_2921"
              data-name="Grupo 2921"
              transform="translate(160.383 68.563)"
              opacity="0.3"
            >
              <path
                id="Trazado_2221"
                data-name="Trazado 2221"
                d="M1436.3,1037.1v-2.776a2.221,2.221,0,0,0,0-4.442h-1.148l-.216-1.127c-.033-.178-.8-4.39,1.694-7.406,1.563-1.889,3.978-2.846,7.176-2.846v2.775c-2.324,0-4.017.615-5.027,1.827a6.323,6.323,0,0,0-1.2,4.168,5,5,0,0,1-1.279,9.826Z"
                transform="translate(-1434.796 -1018.5)"
                fill="#e8291c"
              />
            </g>
            <g
              id="Grupo_2922"
              data-name="Grupo 2922"
              transform="translate(14.66 68.563)"
              opacity="0.3"
            >
              <path
                id="Trazado_2222"
                data-name="Trazado 2222"
                d="M1179.8,1037.1a5,5,0,0,1-1.278-9.826,6.317,6.317,0,0,0-1.2-4.168c-1.01-1.213-2.7-1.827-5.027-1.827V1018.5c3.2,0,5.614.957,7.176,2.846,2.5,3.016,1.727,7.228,1.693,7.406l-.215,1.127H1179.8a2.221,2.221,0,0,0,0,4.442Z"
                transform="translate(-1172.294 -1018.5)"
                fill="#e8291c"
              />
            </g>
          </g>
          <g
            id="Grupo_2924"
            data-name="Grupo 2924"
            transform="translate(63.117 76.036)"
          >
            <rect
              id="Rectángulo_1322"
              data-name="Rectángulo 1322"
              width="31.092"
              height="25.565"
              transform="translate(8.481 3.631)"
              fill="#fff"
            />
            <rect
              id="Rectángulo_1323"
              data-name="Rectángulo 1323"
              width="30.401"
              height="20.728"
              transform="translate(65.829 3.631)"
              fill="#fff"
            />
            <path
              id="sunglasses"
              d="M108.089,27.716h-1.964c-.627-2.918-2.755-5.366-6.293-7.136a20.044,20.044,0,0,0-9.045-2.024H69.7c-.029,0-.055.007-.084.007v-.007h-50.4a20.049,20.049,0,0,0-9.045,2.024C6.634,22.35,4.5,24.8,3.878,27.716H1.832a1.832,1.832,0,1,0,0,3.664H3.664l0,14.755A15.7,15.7,0,0,0,15.109,59.776a17.605,17.605,0,0,0,5,.711h0a20.217,20.217,0,0,0,6.368-1.055c9.268-3.08,24.816-10.1,24.807-22.378a30.554,30.554,0,0,0,.005-4.8,6.32,6.32,0,0,1,7.412.06,29.192,29.192,0,0,0,0,4.564c0,12.452,15.548,19.476,24.816,22.556a20.2,20.2,0,0,0,6.368,1.055,17.605,17.605,0,0,0,5-.711,15.711,15.711,0,0,0,11.445-13.74V31.382h1.748a1.833,1.833,0,0,0,0-3.666Zm-93.97,8.623a1.832,1.832,0,0,1-2.59-2.59l7.328-7.328a1.832,1.832,0,1,1,2.59,2.59Zm20.152-7.328L21.447,41.835a1.832,1.832,0,0,1-2.59-2.59L31.681,26.421a1.832,1.832,0,0,1,2.59,2.59Zm16.455-.643a15.381,15.381,0,0,0-2.713-6.148H61.992A15.42,15.42,0,0,0,59.268,28.4,10.288,10.288,0,0,0,50.727,28.368Zm17.058,8.508a1.832,1.832,0,0,1-1.3-3.127l7.328-7.328a1.832,1.832,0,0,1,2.59,2.59L69.08,36.339A1.827,1.827,0,0,1,67.785,36.876Zm21.447-7.865L76.408,41.835a1.832,1.832,0,0,1-2.59-2.59L86.642,26.421a1.832,1.832,0,0,1,2.59,2.59Z"
              transform="translate(0 -18.556)"
              fill="#1f1c44"
            />
          </g>
        </g>
      </svg>