<svg xmlns="http://www.w3.org/2000/svg" xmlns:xlink="http://www.w3.org/1999/xlink" width="1440" height="157" viewBox="0 0 1440 157">
  <defs>
    <clipPath id="clip-path">
      <rect id="Rect치ngulo_1368" data-name="Rect치ngulo 1368" width="1440" height="157" transform="translate(0 1486.127)" fill="#fff" stroke="#707070" stroke-width="1"/>
    </clipPath>
  </defs>
  <g id="Enmascarar_grupo_43" data-name="Enmascarar grupo 43" transform="translate(0 -1486.127)" clip-path="url(#clip-path)">
    <path id="Uni칩n_15" data-name="Uni칩n 15" d="M24.55,0V37.883q-5.814.832-11.621,1.833c-21.8,3.764-13.163,32.832,4.748,35.053q3.47.432,6.873.989V99h81.435a233.649,233.649,0,0,0,27.927,6.257c18.938,2.937,38.07,2.684,57.195,2.431,14.075-.187,28.149-.375,42.144.709,35.623,2.749,68.214,15.35,104.216,16.6,21.307.746,42.695.4,64.083.05,16.054-.265,32.1-.524,48.124-.325q249.882,3.135,499.775,4.364c85.053.54,170.141.433,255.194,1.3,72.61.739,144.775,7.7,217.144-1.183,143.707-17.659,302.767-39.392,446.221-12.467,21.271,3.992,38.383-4.421,49.254-17.739h36.29V0Z" transform="translate(1865.501 1654.126) rotate(180)" fill="#070244" stroke="rgba(0,0,0,0)" stroke-miterlimit="10" stroke-width="1"/>
  </g>
</svg>
