<svg xmlns="http://www.w3.org/2000/svg" width="24.433" height="24.427" viewBox="0 0 24.433 24.427">
  <g id="Grupo_3020" data-name="Grupo 3020" transform="translate(-536.817 1.81)">
    <path id="Trazado_3903" data-name="Trazado 3903" d="M560.591,7.451h0L558.311,5.5V.069a.417.417,0,0,0-.416-.416h-2.938a.407.407,0,0,0-.406.416V2.263l-4.242-3.615a1.875,1.875,0,0,0-2.452,0L537.473,7.452a1.887,1.887,0,0,0-.2,2.658,1.911,1.911,0,0,0,2.069.549l.424-.149V22.2a.407.407,0,0,0,.406.416H557.9a.417.417,0,0,0,.416-.416V10.509l.424.15a1.885,1.885,0,0,0,1.855-3.208ZM555.373.485h2.115v4.3l-2.115-1.8Zm-3.026,21.3h-6.62V15.263h6.62Zm5.141,0H553.17V14.857a.417.417,0,0,0-.416-.416h-7.443a.407.407,0,0,0-.406.416v6.928h-4.319V9.756l.026-.022,8.468-7.183,8.409,7.2Zm2.675-12.218h0a1.054,1.054,0,0,1-1.485.114l-9.326-7.994a.414.414,0,0,0-.54,0l-9.427,8a1.053,1.053,0,0,1-1.372-1.6L548.4-.722a1.047,1.047,0,0,1,1.369,0l10.283,8.8a1.054,1.054,0,0,1,.114,1.484Z"/>
    <path id="Trazado_3904" data-name="Trazado 3904" d="M731.993,178.469v4.407a.407.407,0,0,0,.406.416h4.5a.417.417,0,0,0,.416-.416v-4.407a.416.416,0,0,0-.416-.416h-4.5A.407.407,0,0,0,731.993,178.469Zm.823.416H736.5v3.574h-3.682Z" transform="translate(-185.619 -171.056)"/>
    <circle id="Elipse_190" data-name="Elipse 190" cx="0.416" cy="0.416" r="0.416" transform="translate(549.4 17.378)"/>
  </g>
</svg>
