<svg xmlns="http://www.w3.org/2000/svg" width="34.625" height="31.543" viewBox="0 0 34.625 31.543">
  <path id="Unión_3" data-name="Unión 3" d="M10047.605,18323.547a.683.683,0,0,1-.673-.691v-3.52c-.634-.008-.14-.246,0-.561v-.291c-.14-.318-.634-.555,0-.566v-4.664a.679.679,0,0,1,.673-.682h.679v-1.721a3.436,3.436,0,0,0-.993-2.43l-2.354-2.387a4.854,4.854,0,0,1-1.077-1.689h-4.772a.326.326,0,0,1-.074-.006c-.006,0-.011-.006-.022-.006s-.028,0-.051,0c-.006,0-.011-.006-.022-.006a.457.457,0,0,0-.047-.018c-.012,0-.017-.006-.021-.006s-.036-.018-.053-.023-.011-.01-.011-.01l-.012,0-5.4-2.734a.7.7,0,0,1-.376-.619.68.68,0,0,1,.376-.607l5.4-2.74.012,0a.014.014,0,0,0,.011-.008c.017-.006.035-.018.053-.023a.057.057,0,0,0,.021,0,.457.457,0,0,1,.047-.018.04.04,0,0,0,.028-.008c.017,0,.027,0,.045,0s.017-.006.022-.006c.023,0,.047-.008.069-.008h7.851v-3.078a2.364,2.364,0,0,1,4.06-1.684,2.358,2.358,0,0,1,1.688-.717,2.331,2.331,0,0,1,1.672.7.087.087,0,0,1,.023.018,2.349,2.349,0,0,1,1.687-.717,2.351,2.351,0,0,0,3.38,1.367,2.322,2.322,0,0,1,1.676.709,2.384,2.384,0,0,1,.691,1.693v1.709h3.786a2.045,2.045,0,0,1,2.028,2.059v2.746a2.045,2.045,0,0,1-2.028,2.059h-3.786v.586a7.667,7.667,0,0,1-.809,3.27,5.971,5.971,0,0,0-.543,2.475v1.9h.68a.678.678,0,0,1,.672.682v9.6a.681.681,0,0,1-.672.691Zm.679-1.371h12.173v-2.84h-12.173Zm12.173-4.258v-3.977h-12.173v3.977Zm-12.731-19.014a3.358,3.358,0,0,0-2.144,1.324,3.47,3.47,0,0,0-.679,2.059v.354a3.26,3.26,0,0,0,.108.85,3.367,3.367,0,0,0,.884,1.572l2.354,2.387a4.809,4.809,0,0,1,1.386,3.4v1.721h9.47v-1.9a7.307,7.307,0,0,1,.674-3.051,6.441,6.441,0,0,0,.678-2.693v-.586h-7.184a5.791,5.791,0,0,1,.416,2.111l0,1.311a.679.679,0,0,1-.672.688h-.006a.675.675,0,0,1-.673-.682l-.006-1.3a4.311,4.311,0,0,0-.753-2.412s0,0,0,0a4.165,4.165,0,0,0-2.736-1.777.687.687,0,0,1,.118-1.363h2.03a2.679,2.679,0,0,0,1.91-.8,2.787,2.787,0,0,0,.708-1.256h-5.326A3.219,3.219,0,0,0,10047.726,18298.9Zm17.2,4.064h.674a.68.68,0,0,0,.679-.682v-2.746a.683.683,0,0,0-.679-.684h-.674Zm-11.061-1.889a4.045,4.045,0,0,1-2.1,1.133,5.456,5.456,0,0,1,.712.756h11.1v-4.111h-1.763v.342a2.386,2.386,0,0,1-2.367,2.4,2.34,2.34,0,0,1-1.687-.723,2.345,2.345,0,0,1-3.553-.193C10054.095,18300.818,10053.98,18300.951,10053.86,18301.08Zm-13.462,1.889h3.165c0-.109-.013-.219-.013-.328v-.354a4.867,4.867,0,0,1,.947-2.879,4.561,4.561,0,0,1,.473-.551h-4.572A4.606,4.606,0,0,1,10040.4,18302.969Zm-5.21-2.057,3.733,1.895a3.253,3.253,0,0,0,0-3.785Zm23.239-5.139v3.426a1.015,1.015,0,1,0,2.029,0v-3.426a1.041,1.041,0,0,0-.3-.729.993.993,0,0,0-.72-.3A1.025,1.025,0,0,0,10058.428,18295.773Zm-3.381-1.369v4.795a1.015,1.015,0,1,0,2.029,0v-4.795a1.015,1.015,0,1,0-2.029,0Zm-3.381,0v3.078h2.028v-3.078a1.048,1.048,0,0,0-.3-.732,1,1,0,0,0-.719-.3A1.026,1.026,0,0,0,10051.666,18294.4Zm-3.382,0v3.078h2.029v-3.078a1.015,1.015,0,1,0-2.029,0Zm.468,21.684a.992.992,0,1,1,.992,1.006A1,1,0,0,1,10048.752,18316.088Z" transform="translate(-10032.998 -18292.004)" fill="#fff"/>
</svg>
