<svg xmlns="http://www.w3.org/2000/svg" width="24.99" height="24.99" viewBox="0 0 24.99 24.99">
  <g id="pen" transform="translate(0 0)">
    <g id="Grupo_1934" data-name="Grupo 1934" transform="translate(0 0)">
      <g id="Grupo_1933" data-name="Grupo 1933">
        <path id="Trazado_997" data-name="Trazado 997" d="M144.442,0h-5.831a2.085,2.085,0,0,0-2.083,2.083V17.076a.416.416,0,0,0,.416.416h2.5a.416.416,0,0,0,0-.833h-2.083v-.833h.416a.416.416,0,1,0,0-.833h-.416v-.833h.416a.416.416,0,1,0,0-.833h-.416v-.833h.416a.416.416,0,1,0,0-.833h-.416v-.833h2.083a.416.416,0,0,0,0-.833h-2.083V9.163h.416a.416.416,0,1,0,0-.833h-.416V7.5h.416a.416.416,0,1,0,0-.833h-.416V5.831h.416a.416.416,0,1,0,0-.833h-.416V4.165h2.083a.416.416,0,0,0,0-.833h-2.083V2.083a1.251,1.251,0,0,1,1.25-1.249h5.831a1.251,1.251,0,0,1,1.249,1.249V22.907a1.251,1.251,0,0,1-1.249,1.249h-5.831a1.251,1.251,0,0,1-1.25-1.249V18.742a.416.416,0,1,0-.833,0v4.165a2.085,2.085,0,0,0,2.083,2.083h5.831a2.085,2.085,0,0,0,2.083-2.083V2.083A2.085,2.085,0,0,0,144.442,0Z" transform="translate(-129.865 0)"/>
        <path id="Trazado_998" data-name="Trazado 998" d="M34.138,102.808V117.8a.416.416,0,0,0,.833,0V102.808a.416.416,0,1,0-.833,0Z" transform="translate(-32.472 -97.394)"/>
        <path id="Trazado_999" data-name="Trazado 999" d="M2.459.582a.434.434,0,0,0-.745,0L.048,3.914A.417.417,0,0,0,0,4.1V23.259a2.083,2.083,0,1,0,4.165,0v-.833a.416.416,0,0,0-.416-.416H2.087a.416.416,0,1,0,0,.833H3.336v.416a1.249,1.249,0,0,1-2.5,0V4.2L2.087,1.7l.992,1.984H2.087a.416.416,0,1,0,0,.833H3.336V20.76a.416.416,0,0,0,.833,0V4.094a.42.42,0,0,0-.047-.187Z" transform="translate(-0.004 -0.352)"/>
        <path id="Trazado_1000" data-name="Trazado 1000" d="M208.128,394.2a1.666,1.666,0,1,0-1.666,1.666A1.668,1.668,0,0,0,208.128,394.2Zm-2.5,0a.833.833,0,1,1,.833.833A.834.834,0,0,1,205.629,394.2Z" transform="translate(-194.8 -373.375)"/>
        <path id="Trazado_1001" data-name="Trazado 1001" d="M394.612,328.431a.416.416,0,1,0,0,.833h3.332a.416.416,0,0,0,.416-.417v-2.5a2.085,2.085,0,0,0-2.083-2.083h-1.666a2.085,2.085,0,0,0-2.083,2.083v5a2.085,2.085,0,0,0,2.083,2.083h1.666a2.085,2.085,0,0,0,2.083-2.083v-.833a.416.416,0,1,0-.833,0v.833a1.251,1.251,0,0,1-1.25,1.249h-1.666a1.251,1.251,0,0,1-1.25-1.249v-5a1.251,1.251,0,0,1,1.25-1.25h1.666a1.251,1.251,0,0,1,1.25,1.25v2.083Z" transform="translate(-373.37 -308.439)"/>
      </g>
    </g>
  </g>
</svg>
