<svg xmlns="http://www.w3.org/2000/svg" width="31.139" height="30.701" viewBox="0 0 31.139 30.701">
  <g id="Grupo_3019" data-name="Grupo 3019" transform="translate(-3.5 -7.059)">
    <path id="Trazado_3897" data-name="Trazado 3897" d="M109.777,250.505a.4.4,0,0,0-.285.113,1.1,1.1,0,0,1-1.511,0,.4.4,0,0,0-.557.576,1.9,1.9,0,0,0,2.625,0,.4.4,0,0,0-.272-.689Z" transform="translate(-97.401 -228.434)"/>
    <path id="Trazado_3898" data-name="Trazado 3898" d="M34.628,117.706a.4.4,0,0,0-.263-.477,4.335,4.335,0,0,1-3.35-4.218v-1.293a6.9,6.9,0,0,0-1.308-4.5,4.38,4.38,0,0,0-3.5-1.526,4.368,4.368,0,0,0-3.435,1.522,6.853,6.853,0,0,0-1.374,4.506v1.293a3.974,3.974,0,0,1-1.668,3.373l-.076.057-.094-.019a3.727,3.727,0,0,0-4.221,2.343l-.07.185-.191-.054-.356-.1c-.32-.088-.758-.207-.928-.257l-.155-.046v-.7l.113-.062a5.072,5.072,0,0,0,2.655-4.457V110.83a5.07,5.07,0,1,0-10.14,0v2.449a5.072,5.072,0,0,0,2.656,4.456l.113.062v.7l-.155.046c-.258.075-.532.15-.8.221-2.124.573-4.531,1.222-4.581,4.246v5.4a.4.4,0,0,0,.4.4h8.554v1.1a.4.4,0,0,0,.4.394h3.2a.4.4,0,0,0,0-.8h-2.8v-.585a3.794,3.794,0,0,1,.186-1.2c.424-1.215,1.518-1.538,2.9-1.946l.389-.115.069.191a2.112,2.112,0,0,0,1.977,1.384,2.144,2.144,0,0,0,2.077-1.381l.068-.192.2.058.189.055c1.772.523,3.05.9,3.089,3.142v.589h-2.8a.4.4,0,0,0,0,.8H24.8a.4.4,0,0,0,.4-.394v-1.1h8.442a.4.4,0,0,0,.4-.4v-5.4a3.574,3.574,0,0,0-1.049-2.655l-.226-.218.284-.133A3,3,0,0,0,34.628,117.706Zm-12.416-6.492c.149-2.957,1.641-4.722,3.994-4.722a3.56,3.56,0,0,1,2.885,1.236,5.761,5.761,0,0,1,1.111,3.486l.009.19-.187.033a2.962,2.962,0,0,1-3.459-1.547.391.391,0,0,0-.358-.213h0a.39.39,0,0,0-.357.213,2.8,2.8,0,0,1-2.663,1.619,4.647,4.647,0,0,1-.794-.072L22.2,111.4Zm-.014,1.008.246.035a5.349,5.349,0,0,0,.735.052,3.609,3.609,0,0,0,2.861-1.26l.165-.2.165.2a3.609,3.609,0,0,0,2.861,1.26,5.357,5.357,0,0,0,.736-.052l.245-.035v.789a4.007,4.007,0,0,1-8.015,0Zm5.508,5.366v1.2a1.5,1.5,0,0,1-3,0v-1.2l.271.072a4.819,4.819,0,0,0,2.458,0Zm-6.957-1.019a4.709,4.709,0,0,0,.894-1.186l.184-.349.195.343a4.842,4.842,0,0,0,1.776,1.794l.107.062V118.5l-.155.046c-.261.076-.536.15-.8.222l-.384.1-.188.052-.07-.182a3.78,3.78,0,0,0-1.52-1.831l-.235-.146Zm-4.8,2.959a2.927,2.927,0,0,1,5.751,0l.081.421-.387-.185a5.962,5.962,0,0,0-5.14,0l-.386.184Zm-8.885-8.7a4.269,4.269,0,1,1,8.537,0v.847l-.208.007c-.155.006-.317.008-.483.008a8.707,8.707,0,0,1-4.816-1.215.4.4,0,0,0-.545.088,2.943,2.943,0,0,1-2.243,1.048l-.242.028Zm0,2.449v-.832l.192-.022a4.133,4.133,0,0,0,2.576-.976l.116-.111.14.079a10.426,10.426,0,0,0,5.291,1.07l.222-.007v.8a4.269,4.269,0,0,1-8.537,0Zm5.769,4.85v.668a1.5,1.5,0,0,1-3,0v-.67l.268.068a5.1,5.1,0,0,0,1.233.152h0a5.081,5.081,0,0,0,1.231-.152Zm3.84,6.711-.153.047-.406.121c-1.523.449-3.1.914-3.541,2.835l-.039.167H7.6V125.3a.4.4,0,0,0-.8,0v2.711H4.3v-4.988c.039-2.253,1.6-2.842,3.988-3.484.2-.054.4-.108.6-.164l.2-.056.065.2a2.3,2.3,0,0,0,4.368,0l.065-.2.2.055.567.157.6.163.165.047-.009.171c0,.052,0,.107,0,.168v.872a3.7,3.7,0,0,0,1.492,2.982l.086.065Zm3.5.3a1.351,1.351,0,0,1-2.7,0v-.7l.278.084a3.7,3.7,0,0,0,.434.1,3.759,3.759,0,0,0,1.167.017,3.6,3.6,0,0,0,.543-.119l.278-.084Zm.23-1.724a2.9,2.9,0,0,1-1.593.459,2.757,2.757,0,0,1-1.544-.446,2.924,2.924,0,0,1-1.368-2.414l0-.119.1-.065a5.159,5.159,0,0,1,5.661,0l.1.066,0,.118A2.927,2.927,0,0,1,20.407,123.417Zm12.833-.4v4.992h-2.5V125.3a.4.4,0,0,0-.8,0v2.711H25.116l-.038-.167c-.444-1.921-2.018-2.386-3.541-2.835l-.406-.121-.152-.047V124l.086-.065a3.7,3.7,0,0,0,1.493-2.984v-.861c0-.067,0-.135-.006-.21l-.01-.174.168-.046.446-.121c.2-.054.4-.109.6-.165l.2-.056.065.2a2.3,2.3,0,0,0,4.369,0l.065-.2.2.056c.2.056.4.11.6.164C31.635,120.18,33.2,120.769,33.24,123.017Zm-1.394-3.487-.066.011-.061-.028a13.9,13.9,0,0,0-2.257-.749c-.279-.075-.541-.146-.8-.221l-.155-.046v-1.264l.107-.062a4.851,4.851,0,0,0,1.772-1.788l.195-.342.184.348a5.5,5.5,0,0,0,2.806,2.4l.187.078-.066.191A1.972,1.972,0,0,1,31.846,119.53Z" transform="translate(0 -92.549)"/>
    <path id="Trazado_3899" data-name="Trazado 3899" d="M190.909,14.507a.4.4,0,0,0,.557,0l3.263-3.15a2.5,2.5,0,0,0-3.4-3.668l-.144.128-.144-.128a2.488,2.488,0,0,0-1.662-.63h-.045a2.5,2.5,0,0,0-1.691,4.3Zm-2.751-6.129h0a1.689,1.689,0,0,1,1.193-.516h.032a1.687,1.687,0,0,1,1.178.474l.348.336a.4.4,0,0,0,.557,0l.348-.336a1.7,1.7,0,1,1,2.358,2.446l-2.985,2.881L188.2,10.78A1.7,1.7,0,0,1,188.158,8.378Z" transform="translate(-172.075 0)"/>
    <path id="Trazado_3900" data-name="Trazado 3900" d="M245.918,491.941a.4.4,0,1,0,.4.4A.4.4,0,0,0,245.918,491.941Z" transform="translate(-227.094 -454.983)"/>
  </g>
</svg>
