<svg xmlns="http://www.w3.org/2000/svg" width="27.801" height="27.801" viewBox="0 0 27.801 27.801">
  <path id="Trazado_1022" data-name="Trazado 1022" d="M23.718,4.083A13.884,13.884,0,1,0,4.083,23.718,13.884,13.884,0,1,0,23.718,4.083ZM13.9,26.172A12.271,12.271,0,1,1,26.172,13.9,12.285,12.285,0,0,1,13.9,26.172Z" fill="#fff"/>
  <path id="Trazado_1023" data-name="Trazado 1023" d="M71.588,61A10.588,10.588,0,1,0,82.176,71.588,10.6,10.6,0,0,0,71.588,61Zm0,19.547a8.959,8.959,0,1,1,8.959-8.959A8.969,8.969,0,0,1,71.588,80.547Z" transform="translate(-57.688 -58)" fill="#fff"/>
  <path id="Trazado_1024" data-name="Trazado 1024" d="M187.516,125.734a.814.814,0,1,0,1.629,0,3,3,0,0,0-1.28-2.379,4.476,4.476,0,0,0-1.978-.814v-.88a.814.814,0,1,0-1.629,0v.88a4.476,4.476,0,0,0-1.978.814,2.851,2.851,0,0,0,0,4.759,4.476,4.476,0,0,0,1.978.814v3.226c-.938-.229-1.629-.838-1.629-1.532a.814.814,0,1,0-1.629,0A3,3,0,0,0,182.28,133a4.476,4.476,0,0,0,1.978.814v.888a.814.814,0,1,0,1.629,0v-.888a4.475,4.475,0,0,0,1.978-.814,2.851,2.851,0,0,0,0-4.759,4.476,4.476,0,0,0-1.978-.814V124.2C186.825,124.431,187.516,125.04,187.516,125.734Zm-4.887,0c0-.694.691-1.3,1.629-1.532v3.064C183.32,127.036,182.629,126.428,182.629,125.734Zm4.887,4.887c0,.694-.691,1.3-1.629,1.532v-3.064C186.825,129.318,187.516,129.927,187.516,130.621Z" transform="translate(-171.172 -114.848)" fill="#fff"/>
</svg>
