<svg xmlns="http://www.w3.org/2000/svg" width="27.917" height="25.042" viewBox="0 0 27.917 25.042">
  <g id="Grupo_3018" data-name="Grupo 3018" transform="translate(523.289 -11)">
    <circle id="Elipse_188" data-name="Elipse 188" cx="0.382" cy="0.382" r="0.382" transform="translate(-509.713 30.018)"/>
    <path id="Trazado_3895" data-name="Trazado 3895" d="M-496.837,15.422h-3.289V13.847a1.73,1.73,0,0,0-.51-1.231,1.73,1.73,0,0,0-1.232-.51,1.74,1.74,0,0,0-.83.211l-.2.112-.072-.222A1.738,1.738,0,0,0-504.632,11a1.728,1.728,0,0,0-1.243.524l-.138.141-.148-.152A1.732,1.732,0,0,0-507.4,11a1.728,1.728,0,0,0-1.244.524l-.138.141-.138-.141A1.728,1.728,0,0,0-510.16,11a1.743,1.743,0,0,0-1.741,1.741v2.681h-6.609l-.036,0-.014,0-.024,0-.013,0-.026.008-.01,0-.029.012-.016.008-4.412,2.206a.357.357,0,0,0-.2.321.357.357,0,0,0,.2.321l4.417,2.209.013.006.026.011.007,0,.031.009.012,0,.028,0h.008l.041,0h4.035l.047.125a3.653,3.653,0,0,0,.836,1.294l1.927,1.927A2.938,2.938,0,0,1-510.8,26v1.584h-.746a.36.36,0,0,0-.359.359v7.739a.36.36,0,0,0,.359.359h11.056a.36.36,0,0,0,.359-.359V27.944a.36.36,0,0,0-.359-.359h-.746V25.863a4.911,4.911,0,0,1,.463-2.075,5.983,5.983,0,0,0,.642-2.559v-.665h3.289a1.467,1.467,0,0,0,1.465-1.465V16.887A1.467,1.467,0,0,0-496.837,15.422Zm-6.053-1.576a1.024,1.024,0,0,1,1.023-1.023,1.016,1.016,0,0,1,.723.3,1.016,1.016,0,0,1,.3.723v2.764a1.024,1.024,0,0,1-1.023,1.023,1.024,1.024,0,0,1-1.023-1.023Zm-2.764-1.106a1.024,1.024,0,0,1,1.023-1.023,1.024,1.024,0,0,1,1.023,1.023v3.87a1.024,1.024,0,0,1-1.023,1.023,1.024,1.024,0,0,1-1.023-1.023Zm-2.764,0a1.024,1.024,0,0,1,1.023-1.023,1.016,1.016,0,0,1,.723.3,1.016,1.016,0,0,1,.3.723v2.681h-2.045Zm-2.764,0a1.024,1.024,0,0,1,1.023-1.023,1.024,1.024,0,0,1,1.023,1.023v2.681h-2.045Zm-7.306,6.891-.1.131-3.541-1.771,3.541-1.771.1.131A2.788,2.788,0,0,1-518.488,19.633Zm3.823-.534v.285c0,.082,0,.167.009.255l.015.207h-3.107l.141-.281a3.506,3.506,0,0,0,0-3.143l-.141-.281h4.524l-.337.331a3.741,3.741,0,0,0-.368.42A3.7,3.7,0,0,0-514.665,19.1Zm13.82,9.2v7.021h-10.338V28.3Zm0-7.074a5.29,5.29,0,0,1-.574,2.253,5.635,5.635,0,0,0-.532,2.381v1.721h-8.126V26a3.651,3.651,0,0,0-1.077-2.6l-1.927-1.927a2.957,2.957,0,0,1-.774-1.359,2.954,2.954,0,0,1-.092-.732V19.1a2.977,2.977,0,0,1,.591-1.774,2.942,2.942,0,0,1,1.88-1.143,2.966,2.966,0,0,1,.486-.04h4.6l-.062.242a2.4,2.4,0,0,1-.629,1.1,2.389,2.389,0,0,1-1.7.7h-1.658a.357.357,0,0,0-.358.328.357.357,0,0,0,.3.385,3.617,3.617,0,0,1,2.36,1.5l.006.008a3.629,3.629,0,0,1,.648,2.055l.006,1.056a.36.36,0,0,0,.359.358.358.358,0,0,0,.255-.107.357.357,0,0,0,.1-.255l-.006-1.056a4.335,4.335,0,0,0-.326-1.633l-.11-.267h6.356Zm2.543-1.384h-9.354l-.058-.073a4.387,4.387,0,0,0-.561-.586l-.3-.261.392-.075a3.1,3.1,0,0,0,1.615-.859,3.2,3.2,0,0,0,.265-.3l.152-.2.153.194a1.733,1.733,0,0,0,1.368.666,1.728,1.728,0,0,0,1.244-.524l.138-.141.138.141a1.728,1.728,0,0,0,1.244.524,1.743,1.743,0,0,0,1.741-1.741v-.47h1.824Zm2.211-.746a.747.747,0,0,1-.746.746h-.746v-3.7h.746a.747.747,0,0,1,.746.746Z"/>
    <path id="Trazado_3896" data-name="Trazado 3896" d="M-236.93,351.719h4.422a.36.36,0,0,0,.359-.359.36.36,0,0,0-.359-.359h-4.422a.36.36,0,0,0-.359.359A.36.36,0,0,0-236.93,351.719Z" transform="translate(-270.19 -321.204)"/>
  </g>
</svg>
