<svg id="music-note" xmlns="http://www.w3.org/2000/svg" width="28.666" height="28.537" viewBox="0 0 28.666 28.537">
  <g id="Grupo_1763" data-name="Grupo 1763">
    <path id="Trazado_974" data-name="Trazado 974" d="M28.634,9.287V2.938a1.1,1.1,0,0,0-.032-.324,2.233,2.233,0,0,0-.615-1.231A1.865,1.865,0,0,0,26.658.8.713.713,0,0,0,26.4.832L11.564,3.067a2.37,2.37,0,0,0-1.393.68,1.977,1.977,0,0,0-.583,1.425V21.919c-.065-.032-.1-.065-.13-.065a6.5,6.5,0,0,0-3.855-1.2,6.5,6.5,0,0,0-3.855,1.2A3.948,3.948,0,0,0,0,25a3.863,3.863,0,0,0,1.749,3.142,6.5,6.5,0,0,0,3.855,1.2,6.5,6.5,0,0,0,3.855-1.2A3.948,3.948,0,0,0,11.207,25V12.266l15.807-2.041v9.458c-.032-.032-.065-.032-.1-.065a6.8,6.8,0,0,0-7.709,0,3.948,3.948,0,0,0-1.749,3.142A3.863,3.863,0,0,0,19.208,25.9a6.8,6.8,0,0,0,7.709,0,3.948,3.948,0,0,0,1.749-3.142V9.384A.119.119,0,0,1,28.634,9.287Z" transform="translate(0 -0.8)" fill="#fff"/>
  </g>
</svg>
