<svg xmlns="http://www.w3.org/2000/svg" width="146.602" height="38.049" viewBox="0 0 146.602 38.049">
  <g id="Grupo_6569" data-name="Grupo 6569" transform="translate(0 0)">
    <g id="Grupo_3003" data-name="Grupo 3003">
      <path id="Trazado_2800" data-name="Trazado 2800" d="M978.79-143.27a.356.356,0,0,1-.1-.11C978.76-143.35,978.79-143.31,978.79-143.27Z" transform="translate(-967.188 146.22)" fill="#99f"/>
      <path id="Trazado_2801" data-name="Trazado 2801" d="M849.192-116.74c.04.17.06.32.11.48a9,9,0,0,1-.48-.86c-.1-.11-.21-.22-.3-.34-.22-.07-.66-.41-.39.05a17.218,17.218,0,0,1-1.07-1.51l-.39.05c-.2-.45-.15-.49.19-.03a6.608,6.608,0,0,1-.69-1.59c-.19-.6-.41-1.04-.66-.73a24.433,24.433,0,0,1-.73-3.98c-.11,1.51-.67-1.61-.59-.04-.31-.91.15-1.14.15-1.85-.15-.6-.47-.44-.6.16a3.758,3.758,0,0,1,.12-.67l-.08.01.25-.75c-.14-.82-.4-.2-.33-1.05l.35-.14-.1-.59c.13.24.21-.26.41-.83l-.08-.01.25-.7c-.378.656.093-.652-.206-.411-.058.243-.136.572-.262,1.107l.223-1.08c.015-.018.023-.016.038-.027h0a12.354,12.354,0,0,1,.67-1.69c.04.09.08.18.13.27.8-1.27-.28-.18.23-1.3l.19.18c.46-1.77,1.74-2.4,2.39-3.5-.54.51-.65.18-.58.22a10.6,10.6,0,0,1,3.25-2.53c.12-.56.16-.68,1.12-1.47.8-.39.94-.4,1.29-.34.71-.5,2.31-.8,2.28-1.04.25.15.74-.24,1.24-.17l.07-.13-.02.26c1.39-.82,2.61,0,3.97-.49l-.25-.07.59.1c.1-.11-.14-.18-.17-.32l2.73-.05-.54.19c.58.02.96.27,1.62.11-1.09-.38.91-.01,1.09-.3l-.59-.1c.8.02.8.02.73.27,1.04.09.72-.48,1.67-.21l-.68.01c-.2.15.29.36.75.35.1-.04.38-.13.16-.17.81.08,1.98-.05,2.33.06.44-.08.29-.26.05-.33,1.75.22.79-.05,2.55.17l-.03-.14.6.17.86-.31-.31.19a7.6,7.6,0,0,0,1.6.04l-.27-.21c1.63.12,1.88-.36,3.42-.06.08-.03-.05-.08-.17-.12,1.33.28,1.02-.4,2.43,0-.089-.069.067-.159.01-.218l-.291-.063c.191.009.263.032.291.062h0l.66.14-.06-.29.54.43.4-.3.25.14c.7-.56,1.69-.14,2.65-.56l-.17.37c2.41.75,5.51-.43,8.43-.08l-.06-.29,1.21.34c.64-.23-.39-.24-.19-.39,1.29.16.54.42,2.03.51.77-.2-.27-.22-.63-.32a23.148,23.148,0,0,0,4.47.14c.02.04.08.09.03.1a30.688,30.688,0,0,0,3.19.02c-.02-.13-.28-.15-.53-.18a3.156,3.156,0,0,1,1.19.02l-.39-.24c.79-.05,2.32.17,2.49-.12-.09.11-.05.33.63.31.38-.44,1.86.19,2.95-.05a2.489,2.489,0,0,0-.7-.13,3.119,3.119,0,0,1,1.52.22l-.15-.17,2.56.24c.37-.44,2.4.07,2.23-.26.91-.01-.76.2.39.25.31-.19,1.04.09.99-.2l-.12-.03.8.02-.5-.28c.69.06,1.2.34,1.23.56.66-.16,1.59-.03,1.89-.29l-.24-.07c1.85.11,3.06-.78,4.51-.3.11-.04.09-.11-.13-.11l1.14-.01-.27-.22,1.88.33-.02-.14c1.24-.06,3.19.01,4.8.05l-.24-.06c1.75.22,1.69-.14,2.97.02a.308.308,0,0,0-.14-.07l1.15.01-.25-.14a3.921,3.921,0,0,0,1.99-.19.558.558,0,0,1-.08.05,5.038,5.038,0,0,1,1.46.48c1.25.01.31-.19,1.08-.31a14.145,14.145,0,0,0,2.3.1l-.02-.14c.57.02.93.13,1.73.15l-.23-.07c1.3.3,1.63-.43,2.66.21.54-.12,1.59-.03,1.54-.32,1.63.19,2.89.27,4.51.39.26-.48.35.03,1.33-.24l-.07.25c2.29.03,4.91-.6,7.44-.49l.07-.26.5.28c2.72-.12,6.24-.22,8.4-.22.36.06.81.17,1.3.26.26.04.51.07.8.09a8.443,8.443,0,0,0,1.01.04l-.14-.04a25.356,25.356,0,0,1,7.27,2.01c-.08-.14.09-.14.01-.24a9.426,9.426,0,0,0,1.78.96l-.67-.18a3.221,3.221,0,0,0,1.02.71,3.817,3.817,0,0,0,.92.38,11.591,11.591,0,0,1,.75.95c.068.029.182.076.225.059l-.035-.132c.062.088.06.12.039.133h0l.06.25.7.18a6.362,6.362,0,0,1,1.22,2.05c.15.01.88.84.42.13l.66.85.59.91a15.868,15.868,0,0,1,1.05,1.9l-.4-.56c-.26.04.16,1.24.46,1.83-.11-.89.31-.2.62.1.07.6-.39-.41-.41-.07a15.1,15.1,0,0,0,.6,2.6l-.01-.44c.13.98.61,1.37.72,2.36-.16.91.06,1.55-.39,1.38-.08,1.26.29.49.33.9a5.391,5.391,0,0,0-.17,1.44,2.9,2.9,0,0,0,.05,1.2,3.951,3.951,0,0,0-.64,1.94c-.14.8-.37,1.53-.65,1.56a9.844,9.844,0,0,1-.14,1.09c-.15-.03-.53.02-.95.75-.26.76.05.72.05,1.01l-.74.17a14.712,14.712,0,0,1-5.09,5.7,22.52,22.52,0,0,1-7.48,3.14,10.786,10.786,0,0,1-1.82.07c-.31-.01-.63-.01-.95-.02-.26-.02-.53-.03-.8-.05a32.643,32.643,0,0,0-3.28-.07l.24.07-2.14.14,1.55-.24a7.112,7.112,0,0,0-1.28-.16,46.468,46.468,0,0,1-8.38.22.69.69,0,0,1,.1.04l-.12-.04c-1.86-.61-1.24.55-3.02.1.15.06.21.14.35.2-1.94-.2-2.99-.31-4.92-.67.22.61-1.26-.01-1.09.31l-.16-.25c-.43.15-1.44.21-1.3.38l-.85-.31-.08.26c-1.13.02-3.56-.19-4.15.33a76.792,76.792,0,0,0-10.75-.17,8.262,8.262,0,0,0-2.33-.25l-.86.3a7.426,7.426,0,0,0-2.44-.28c.01.04.04.06.09.08a8.694,8.694,0,0,1-2.4-.18c-.79.02-1.56.14-1.56.36-.31-.32-1.88.17-1.88.17s-46.68,1.24-58.07-1.51c-.38-.25-2.59-.74-2.19-1.04-.81-.09-.84.25-1,0" transform="translate(-843.69 146.22)" fill="#99f"/>
      <line id="Línea_374" data-name="Línea 374" x1="0.35" y1="0.03" transform="translate(19.972 35.16)" fill="#2592e6"/>
      <path id="Trazado_2802" data-name="Trazado 2802" d="M899.758-145.7a1.622,1.622,0,0,1,.336,0Z" transform="translate(-809.56 146.22)" fill="#99f"/>
      <path id="Trazado_2803" data-name="Trazado 2803" d="M931.457-144.97c-.2.009-.368,0-.425-.092A1.3,1.3,0,0,0,931.457-144.97Z" transform="translate(-872.197 146.22)" fill="#99f"/>
      <path id="Trazado_2804" data-name="Trazado 2804" d="M971.809-110.214l1.208.255A3.835,3.835,0,0,1,971.809-110.214Z" transform="translate(-954.534 146.22)" fill="#99f"/>
      <path id="Trazado_2805" data-name="Trazado 2805" d="M878.493-108.525l.57.061A1.2,1.2,0,0,1,878.493-108.525Z" transform="translate(-767.264 146.22)" fill="#99f"/>
      <path id="Trazado_2806" data-name="Trazado 2806" d="M973.017-110.361a3.219,3.219,0,0,1,.69.147Z" transform="translate(-956.432 146.22)" fill="#99f"/>
      <path id="Trazado_2807" data-name="Trazado 2807" d="M933.733-144.953c-.065.018-.156.027-.233.041C933.474-144.955,933.49-144.986,933.733-144.953Z" transform="translate(-876.932 146.22)" fill="#99f"/>
    </g>
    <text id="_ver_obra" data-name="            ver obra" transform="translate(1.301 11.524)" fill="#fff" font-size="12" font-family="Nunito-ExtraBold, Nunito" font-weight="800"><tspan x="0" y="12" xml:space="preserve">            VER OBRA</tspan></text>
  </g>
</svg>
